G04 EAGLE Gerber RS-274X export*
G75*
%MOMM*%
%FSLAX34Y34*%
%LPD*%
%INSilkscreen Bottom*%
%IPPOS*%
%AMOC8*
5,1,8,0,0,1.08239X$1,22.5*%
G01*
%ADD10C,0.127000*%
%ADD11R,0.127000X0.025400*%
%ADD12R,0.203200X0.025400*%
%ADD13R,0.279400X0.025400*%
%ADD14R,0.177800X0.025400*%
%ADD15R,0.355600X0.025400*%
%ADD16R,0.381000X0.025400*%
%ADD17R,0.457200X0.025400*%
%ADD18R,0.736600X0.025400*%
%ADD19R,0.508000X0.025400*%
%ADD20R,0.914400X0.025400*%
%ADD21R,0.558800X0.025400*%
%ADD22R,1.092200X0.025400*%
%ADD23R,0.152400X0.025400*%
%ADD24R,0.584200X0.025400*%
%ADD25R,1.219200X0.025400*%
%ADD26R,1.371600X0.025400*%
%ADD27R,0.228600X0.025400*%
%ADD28R,1.473200X0.025400*%
%ADD29R,1.574800X0.025400*%
%ADD30R,1.651000X0.025400*%
%ADD31R,1.752600X0.025400*%
%ADD32R,1.828800X0.025400*%
%ADD33R,1.905000X0.025400*%
%ADD34R,0.889000X0.025400*%
%ADD35R,0.863600X0.025400*%
%ADD36R,0.711200X0.025400*%
%ADD37R,0.431800X0.025400*%
%ADD38R,0.685800X0.025400*%
%ADD39R,0.635000X0.025400*%
%ADD40R,0.406400X0.025400*%
%ADD41R,0.609600X0.025400*%
%ADD42R,0.330200X0.025400*%
%ADD43R,0.533400X0.025400*%
%ADD44R,0.304800X0.025400*%
%ADD45R,0.254000X0.025400*%
%ADD46R,0.482600X0.025400*%
%ADD47R,0.050800X0.025400*%
%ADD48R,0.838200X0.025400*%
%ADD49R,0.965200X0.025400*%
%ADD50R,1.041400X0.025400*%
%ADD51R,1.117600X0.025400*%
%ADD52R,1.270000X0.025400*%
%ADD53R,1.320800X0.025400*%
%ADD54R,1.422400X0.025400*%
%ADD55R,1.524000X0.025400*%
%ADD56R,1.549400X0.025400*%
%ADD57R,0.660400X0.025400*%
%ADD58R,0.101600X0.025400*%
%ADD59R,0.812800X0.025400*%
%ADD60R,1.295400X0.025400*%
%ADD61R,1.244600X0.025400*%
%ADD62R,1.193800X0.025400*%
%ADD63R,0.076200X0.025400*%
%ADD64R,1.066800X0.025400*%
%ADD65R,0.990600X0.025400*%
%ADD66R,0.025400X0.025400*%
%ADD67R,0.787400X0.025400*%
%ADD68R,0.762000X0.025400*%
%ADD69C,0.076200*%


D10*
X497602Y323596D02*
X497602Y339103D01*
X489848Y339103D01*
X487263Y336519D01*
X487263Y331350D01*
X489848Y328765D01*
X497602Y328765D01*
X479581Y323596D02*
X474412Y323596D01*
X471827Y326181D01*
X471827Y331350D01*
X474412Y333934D01*
X479581Y333934D01*
X482166Y331350D01*
X482166Y326181D01*
X479581Y323596D01*
X466730Y323596D02*
X458976Y323596D01*
X456391Y326181D01*
X458976Y328765D01*
X464145Y328765D01*
X466730Y331350D01*
X464145Y333934D01*
X456391Y333934D01*
X451293Y333934D02*
X448709Y333934D01*
X448709Y323596D01*
X451293Y323596D02*
X446124Y323596D01*
X448709Y339103D02*
X448709Y341688D01*
X438418Y336519D02*
X438418Y326181D01*
X435834Y323596D01*
X435834Y333934D02*
X441003Y333934D01*
X430712Y333934D02*
X430712Y323596D01*
X430712Y328765D02*
X425543Y333934D01*
X422958Y333934D01*
X415264Y323596D02*
X410095Y323596D01*
X407511Y326181D01*
X407511Y331350D01*
X410095Y333934D01*
X415264Y333934D01*
X417849Y331350D01*
X417849Y326181D01*
X415264Y323596D01*
X402413Y323596D02*
X402413Y333934D01*
X394659Y333934D01*
X392074Y331350D01*
X392074Y323596D01*
X371541Y339103D02*
X361202Y339103D01*
X371541Y339103D02*
X371541Y323596D01*
X361202Y323596D01*
X366371Y331350D02*
X371541Y331350D01*
X356104Y339103D02*
X353520Y339103D01*
X353520Y323596D01*
X356104Y323596D02*
X350935Y323596D01*
X343229Y323596D02*
X338060Y323596D01*
X343229Y323596D02*
X345814Y326181D01*
X345814Y331350D01*
X343229Y333934D01*
X338060Y333934D01*
X335476Y331350D01*
X335476Y328765D01*
X345814Y328765D01*
X327793Y333934D02*
X320040Y333934D01*
X327793Y333934D02*
X330378Y331350D01*
X330378Y326181D01*
X327793Y323596D01*
X320040Y323596D01*
X312357Y326181D02*
X312357Y336519D01*
X312357Y326181D02*
X309773Y323596D01*
X309773Y333934D02*
X314942Y333934D01*
X304651Y333934D02*
X304651Y323596D01*
X304651Y328765D02*
X299482Y333934D01*
X296897Y333934D01*
X289203Y323596D02*
X284034Y323596D01*
X281449Y326181D01*
X281449Y331350D01*
X284034Y333934D01*
X289203Y333934D01*
X291788Y331350D01*
X291788Y326181D01*
X289203Y323596D01*
X276352Y323596D02*
X276352Y333934D01*
X268598Y333934D01*
X266013Y331350D01*
X266013Y323596D01*
X260915Y333934D02*
X258331Y333934D01*
X258331Y323596D01*
X260915Y323596D02*
X255746Y323596D01*
X258331Y339103D02*
X258331Y341688D01*
X248040Y333934D02*
X240287Y333934D01*
X248040Y333934D02*
X250625Y331350D01*
X250625Y326181D01*
X248040Y323596D01*
X240287Y323596D01*
X467968Y313957D02*
X478307Y313957D01*
X478307Y298450D01*
X467968Y298450D01*
X473137Y306204D02*
X478307Y306204D01*
X455117Y313957D02*
X452532Y311373D01*
X455117Y313957D02*
X460286Y313957D01*
X462870Y311373D01*
X462870Y308788D01*
X460286Y306204D01*
X455117Y306204D01*
X452532Y303619D01*
X452532Y301035D01*
X455117Y298450D01*
X460286Y298450D01*
X462870Y301035D01*
X447434Y298450D02*
X447434Y313957D01*
X439681Y313957D01*
X437096Y311373D01*
X437096Y306204D01*
X439681Y303619D01*
X447434Y303619D01*
X431998Y311373D02*
X429414Y313957D01*
X424245Y313957D01*
X421660Y311373D01*
X421660Y308788D01*
X424245Y306204D01*
X426829Y306204D01*
X424245Y306204D02*
X421660Y303619D01*
X421660Y301035D01*
X424245Y298450D01*
X429414Y298450D01*
X431998Y301035D01*
X416562Y298450D02*
X406224Y298450D01*
X416562Y298450D02*
X406224Y308788D01*
X406224Y311373D01*
X408809Y313957D01*
X413978Y313957D01*
X416562Y311373D01*
X401126Y295865D02*
X390788Y295865D01*
X385690Y298450D02*
X385690Y313957D01*
X385690Y298450D02*
X375352Y298450D01*
X367670Y313957D02*
X362500Y313957D01*
X367670Y313957D02*
X370254Y311373D01*
X370254Y301035D01*
X367670Y298450D01*
X362500Y298450D01*
X359916Y301035D01*
X359916Y311373D01*
X362500Y313957D01*
X354818Y313957D02*
X354818Y298450D01*
X354818Y313957D02*
X347064Y313957D01*
X344480Y311373D01*
X344480Y306204D01*
X347064Y303619D01*
X354818Y303619D01*
X349649Y303619D02*
X344480Y298450D01*
X339382Y298450D02*
X339382Y308788D01*
X334213Y313957D01*
X329044Y308788D01*
X329044Y298450D01*
X329044Y306204D02*
X339382Y306204D01*
X308510Y303619D02*
X308510Y313957D01*
X308510Y303619D02*
X303341Y298450D01*
X298172Y303619D01*
X298172Y313957D01*
X293074Y308788D02*
X287905Y313957D01*
X287905Y298450D01*
X293074Y298450D02*
X282736Y298450D01*
X277638Y298450D02*
X277638Y301035D01*
X275053Y301035D01*
X275053Y298450D01*
X277638Y298450D01*
X269920Y301035D02*
X269920Y311373D01*
X267335Y313957D01*
X262166Y313957D01*
X259582Y311373D01*
X259582Y301035D01*
X262166Y298450D01*
X267335Y298450D01*
X269920Y301035D01*
X259582Y311373D01*
D11*
X361061Y352171D03*
D12*
X360934Y352425D03*
D13*
X387731Y352679D03*
D14*
X360299Y352679D03*
D15*
X387604Y352933D03*
D16*
X370205Y352933D03*
D14*
X359791Y352933D03*
D17*
X387350Y353187D03*
D18*
X370205Y353187D03*
D14*
X359537Y353187D03*
D19*
X387350Y353441D03*
D20*
X370332Y353441D03*
D14*
X359029Y353441D03*
D21*
X387096Y353695D03*
D22*
X370205Y353695D03*
D23*
X358648Y353695D03*
D24*
X387223Y353949D03*
D25*
X370332Y353949D03*
D14*
X358267Y353949D03*
D23*
X389382Y354203D03*
D13*
X385445Y354203D03*
D26*
X370332Y354203D03*
D14*
X358013Y354203D03*
D23*
X389382Y354457D03*
D27*
X385191Y354457D03*
D28*
X370332Y354457D03*
D23*
X357632Y354457D03*
X389128Y354711D03*
D14*
X384937Y354711D03*
D29*
X370332Y354711D03*
D23*
X357378Y354711D03*
D14*
X389001Y354965D03*
D23*
X384810Y354965D03*
D30*
X370459Y354965D03*
D14*
X356997Y354965D03*
X389001Y355219D03*
D11*
X384937Y355219D03*
D31*
X370459Y355219D03*
D14*
X356743Y355219D03*
X388747Y355473D03*
D23*
X385064Y355473D03*
D32*
X370332Y355473D03*
D23*
X356362Y355473D03*
D12*
X388620Y355727D03*
D23*
X385064Y355727D03*
D33*
X370459Y355727D03*
D23*
X356108Y355727D03*
D12*
X388366Y355981D03*
D23*
X385318Y355981D03*
D34*
X375793Y355981D03*
D35*
X364744Y355981D03*
D23*
X355854Y355981D03*
D12*
X388112Y356235D03*
D23*
X385318Y356235D03*
D18*
X376809Y356235D03*
D36*
X363728Y356235D03*
D23*
X355600Y356235D03*
D37*
X386969Y356489D03*
D38*
X377571Y356489D03*
D39*
X363093Y356489D03*
D23*
X355346Y356489D03*
D40*
X386842Y356743D03*
D41*
X378206Y356743D03*
X362458Y356743D03*
D23*
X355092Y356743D03*
D15*
X386842Y356997D03*
D24*
X378587Y356997D03*
X362077Y356997D03*
D23*
X354838Y356997D03*
D42*
X386715Y357251D03*
D43*
X379095Y357251D03*
X361569Y357251D03*
D23*
X354838Y357251D03*
D44*
X386588Y357505D03*
D19*
X379476Y357505D03*
X361188Y357505D03*
D23*
X354584Y357505D03*
D45*
X386334Y357759D03*
D19*
X379730Y357759D03*
X360934Y357759D03*
D23*
X354330Y357759D03*
D27*
X386207Y358013D03*
D46*
X380111Y358013D03*
X360553Y358013D03*
D23*
X354076Y358013D03*
D14*
X386207Y358267D03*
D17*
X380492Y358267D03*
D46*
X360299Y358267D03*
D23*
X353822Y358267D03*
D11*
X386207Y358521D03*
D17*
X380746Y358521D03*
D11*
X371729Y358521D03*
D17*
X359918Y358521D03*
D23*
X353822Y358521D03*
D47*
X386080Y358775D03*
D17*
X381000Y358775D03*
D23*
X372618Y358775D03*
D17*
X359664Y358775D03*
D23*
X353568Y358775D03*
D37*
X381381Y359029D03*
D23*
X373634Y359029D03*
D37*
X359283Y359029D03*
D23*
X353314Y359029D03*
D37*
X381635Y359283D03*
D11*
X374269Y359283D03*
D37*
X359029Y359283D03*
D23*
X353314Y359283D03*
D40*
X381762Y359537D03*
D11*
X374777Y359537D03*
D37*
X358775Y359537D03*
D23*
X353060Y359537D03*
D40*
X382016Y359791D03*
D11*
X375285Y359791D03*
D40*
X358648Y359791D03*
D23*
X352806Y359791D03*
D40*
X382270Y360045D03*
D11*
X375793Y360045D03*
D40*
X358394Y360045D03*
D23*
X352806Y360045D03*
D16*
X382397Y360299D03*
D11*
X376047Y360299D03*
D13*
X368935Y360299D03*
D40*
X358140Y360299D03*
D23*
X352552Y360299D03*
D16*
X382651Y360553D03*
D11*
X376555Y360553D03*
D21*
X369062Y360553D03*
D16*
X358013Y360553D03*
D23*
X352552Y360553D03*
D16*
X382905Y360807D03*
D11*
X376809Y360807D03*
D36*
X369062Y360807D03*
D16*
X357759Y360807D03*
D23*
X352298Y360807D03*
D16*
X382905Y361061D03*
D11*
X377063Y361061D03*
D48*
X368935Y361061D03*
D16*
X357505Y361061D03*
D23*
X352298Y361061D03*
D16*
X383159Y361315D03*
D11*
X377317Y361315D03*
D49*
X369062Y361315D03*
D15*
X357378Y361315D03*
D23*
X352044Y361315D03*
D16*
X383413Y361569D03*
D11*
X377571Y361569D03*
D50*
X368935Y361569D03*
D16*
X357251Y361569D03*
D23*
X352044Y361569D03*
D15*
X383540Y361823D03*
D11*
X377825Y361823D03*
D51*
X369062Y361823D03*
D15*
X357124Y361823D03*
D23*
X351790Y361823D03*
D16*
X383667Y362077D03*
D11*
X378079Y362077D03*
D25*
X369062Y362077D03*
D15*
X356870Y362077D03*
D23*
X351790Y362077D03*
D15*
X383794Y362331D03*
D23*
X378206Y362331D03*
D52*
X369062Y362331D03*
D16*
X356743Y362331D03*
D11*
X351663Y362331D03*
D15*
X384048Y362585D03*
D23*
X378460Y362585D03*
D53*
X369062Y362585D03*
D15*
X356616Y362585D03*
D23*
X351536Y362585D03*
D15*
X384048Y362839D03*
D23*
X378714Y362839D03*
D26*
X369062Y362839D03*
D15*
X356362Y362839D03*
D11*
X351409Y362839D03*
D15*
X384302Y363093D03*
D14*
X378841Y363093D03*
D54*
X369062Y363093D03*
D15*
X356362Y363093D03*
D23*
X351282Y363093D03*
D42*
X384429Y363347D03*
D23*
X378968Y363347D03*
D28*
X369062Y363347D03*
D42*
X356235Y363347D03*
D23*
X351282Y363347D03*
D42*
X384429Y363601D03*
D23*
X379222Y363601D03*
D55*
X369062Y363601D03*
D15*
X356108Y363601D03*
D11*
X351155Y363601D03*
D42*
X384683Y363855D03*
D14*
X379349Y363855D03*
D29*
X369062Y363855D03*
D42*
X355981Y363855D03*
D23*
X351028Y363855D03*
D42*
X384683Y364109D03*
D23*
X379476Y364109D03*
D56*
X368681Y364109D03*
D42*
X355981Y364109D03*
D23*
X351028Y364109D03*
D15*
X384810Y364363D03*
D14*
X379603Y364363D03*
D43*
X373507Y364363D03*
D57*
X363982Y364363D03*
D42*
X355727Y364363D03*
D11*
X350901Y364363D03*
D42*
X384937Y364617D03*
D23*
X379730Y364617D03*
D37*
X373761Y364617D03*
D41*
X363474Y364617D03*
D42*
X355727Y364617D03*
D11*
X350901Y364617D03*
D42*
X384937Y364871D03*
D14*
X379857Y364871D03*
D15*
X373888Y364871D03*
D21*
X363220Y364871D03*
D42*
X355727Y364871D03*
D23*
X350774Y364871D03*
D42*
X385191Y365125D03*
D14*
X379857Y365125D03*
D13*
X374015Y365125D03*
D43*
X362839Y365125D03*
D42*
X355473Y365125D03*
D23*
X350774Y365125D03*
D42*
X385191Y365379D03*
D14*
X380111Y365379D03*
D27*
X374015Y365379D03*
D43*
X362585Y365379D03*
D42*
X355473Y365379D03*
D11*
X350647Y365379D03*
D42*
X385191Y365633D03*
D14*
X380111Y365633D03*
X374015Y365633D03*
D19*
X362458Y365633D03*
D42*
X355473Y365633D03*
D11*
X350647Y365633D03*
D44*
X385318Y365887D03*
D12*
X380238Y365887D03*
D58*
X373888Y365887D03*
D46*
X362077Y365887D03*
D44*
X355346Y365887D03*
D23*
X350520Y365887D03*
D42*
X385445Y366141D03*
D14*
X380365Y366141D03*
D47*
X373888Y366141D03*
D17*
X361950Y366141D03*
D42*
X355219Y366141D03*
D23*
X350520Y366141D03*
D42*
X385445Y366395D03*
D14*
X380365Y366395D03*
D17*
X361696Y366395D03*
D42*
X355219Y366395D03*
D23*
X350520Y366395D03*
D42*
X385445Y366649D03*
D12*
X380492Y366649D03*
D17*
X361696Y366649D03*
D42*
X355219Y366649D03*
D11*
X350393Y366649D03*
D44*
X385572Y366903D03*
D12*
X380492Y366903D03*
D17*
X361442Y366903D03*
D44*
X355092Y366903D03*
D11*
X350393Y366903D03*
D44*
X385572Y367157D03*
D12*
X380492Y367157D03*
D37*
X361315Y367157D03*
D44*
X355092Y367157D03*
D11*
X350393Y367157D03*
D44*
X385572Y367411D03*
D14*
X380619Y367411D03*
D37*
X361315Y367411D03*
D42*
X354965Y367411D03*
D23*
X350266Y367411D03*
D42*
X385699Y367665D03*
D12*
X380746Y367665D03*
D37*
X361061Y367665D03*
D42*
X354965Y367665D03*
D23*
X350266Y367665D03*
D42*
X385699Y367919D03*
D12*
X380746Y367919D03*
D40*
X360934Y367919D03*
D42*
X354965Y367919D03*
D23*
X350266Y367919D03*
D42*
X385699Y368173D03*
D12*
X380746Y368173D03*
D40*
X360934Y368173D03*
D42*
X354965Y368173D03*
D23*
X350266Y368173D03*
D44*
X385826Y368427D03*
D12*
X380746Y368427D03*
D37*
X360807Y368427D03*
D44*
X354838Y368427D03*
D23*
X350266Y368427D03*
D44*
X385826Y368681D03*
D12*
X380746Y368681D03*
D40*
X360680Y368681D03*
D44*
X354838Y368681D03*
D23*
X350266Y368681D03*
D44*
X385826Y368935D03*
D12*
X380746Y368935D03*
D40*
X360680Y368935D03*
D44*
X354838Y368935D03*
D11*
X350139Y368935D03*
D44*
X385826Y369189D03*
D12*
X380746Y369189D03*
D40*
X360680Y369189D03*
D44*
X354838Y369189D03*
D11*
X350139Y369189D03*
D44*
X385826Y369443D03*
D12*
X380746Y369443D03*
D40*
X360680Y369443D03*
D44*
X354838Y369443D03*
D11*
X350139Y369443D03*
D44*
X385826Y369697D03*
D12*
X380746Y369697D03*
D16*
X360553Y369697D03*
D44*
X354838Y369697D03*
D11*
X350139Y369697D03*
D44*
X385826Y369951D03*
D12*
X380746Y369951D03*
D16*
X360553Y369951D03*
D44*
X354838Y369951D03*
D11*
X350139Y369951D03*
D44*
X385826Y370205D03*
D12*
X380746Y370205D03*
D16*
X360553Y370205D03*
D44*
X354838Y370205D03*
D11*
X350139Y370205D03*
D44*
X385826Y370459D03*
D27*
X380619Y370459D03*
D16*
X360553Y370459D03*
D44*
X354838Y370459D03*
D11*
X350139Y370459D03*
D44*
X385826Y370713D03*
D27*
X380619Y370713D03*
D16*
X360553Y370713D03*
D44*
X354838Y370713D03*
D11*
X350139Y370713D03*
D44*
X385826Y370967D03*
D27*
X380619Y370967D03*
D16*
X360553Y370967D03*
D44*
X354838Y370967D03*
D23*
X350266Y370967D03*
D42*
X385699Y371221D03*
D27*
X380619Y371221D03*
D16*
X360553Y371221D03*
D44*
X354838Y371221D03*
D23*
X350266Y371221D03*
D42*
X385699Y371475D03*
D27*
X380619Y371475D03*
D16*
X360553Y371475D03*
D44*
X354838Y371475D03*
D23*
X350266Y371475D03*
D44*
X385572Y371729D03*
D27*
X380619Y371729D03*
D40*
X360680Y371729D03*
D42*
X354965Y371729D03*
D23*
X350266Y371729D03*
D44*
X385572Y371983D03*
D27*
X380365Y371983D03*
D40*
X360680Y371983D03*
D42*
X354965Y371983D03*
D23*
X350266Y371983D03*
D44*
X385572Y372237D03*
D27*
X380365Y372237D03*
D40*
X360680Y372237D03*
D42*
X354965Y372237D03*
D11*
X350393Y372237D03*
D44*
X385572Y372491D03*
D27*
X380365Y372491D03*
D40*
X360680Y372491D03*
D42*
X354965Y372491D03*
D11*
X350393Y372491D03*
D44*
X385572Y372745D03*
D45*
X380238Y372745D03*
D40*
X360680Y372745D03*
D44*
X355092Y372745D03*
D11*
X350393Y372745D03*
D42*
X385445Y372999D03*
D45*
X380238Y372999D03*
D37*
X360807Y372999D03*
D44*
X355092Y372999D03*
D11*
X350393Y372999D03*
D42*
X385445Y373253D03*
D27*
X380111Y373253D03*
D40*
X360934Y373253D03*
D42*
X355219Y373253D03*
D23*
X350520Y373253D03*
D44*
X385318Y373507D03*
D45*
X379984Y373507D03*
D37*
X361061Y373507D03*
D42*
X355219Y373507D03*
D23*
X350520Y373507D03*
D44*
X385318Y373761D03*
D45*
X379984Y373761D03*
D37*
X361061Y373761D03*
D42*
X355219Y373761D03*
D11*
X350647Y373761D03*
D42*
X385191Y374015D03*
D45*
X379730Y374015D03*
D37*
X361315Y374015D03*
D44*
X355346Y374015D03*
D11*
X350647Y374015D03*
D42*
X385191Y374269D03*
D45*
X379730Y374269D03*
D37*
X361315Y374269D03*
D42*
X355473Y374269D03*
D11*
X350647Y374269D03*
D44*
X385064Y374523D03*
D45*
X379476Y374523D03*
D17*
X361442Y374523D03*
D42*
X355473Y374523D03*
D23*
X350774Y374523D03*
D42*
X384937Y374777D03*
D45*
X379476Y374777D03*
D17*
X361696Y374777D03*
D15*
X355600Y374777D03*
D11*
X350901Y374777D03*
D42*
X384937Y375031D03*
D45*
X379222Y375031D03*
D46*
X361823Y375031D03*
D42*
X355727Y375031D03*
D11*
X350901Y375031D03*
D44*
X384810Y375285D03*
D45*
X379222Y375285D03*
D17*
X361950Y375285D03*
D42*
X355727Y375285D03*
D11*
X350901Y375285D03*
D42*
X384683Y375539D03*
D45*
X378968Y375539D03*
D46*
X362077Y375539D03*
D15*
X355854Y375539D03*
D23*
X351028Y375539D03*
D42*
X384683Y375793D03*
D13*
X378841Y375793D03*
D46*
X362331Y375793D03*
D42*
X355981Y375793D03*
D11*
X351155Y375793D03*
D42*
X384429Y376047D03*
D13*
X378587Y376047D03*
D19*
X362458Y376047D03*
D15*
X356108Y376047D03*
D11*
X351155Y376047D03*
D42*
X384429Y376301D03*
D13*
X378587Y376301D03*
D19*
X362712Y376301D03*
D42*
X356235Y376301D03*
D23*
X351282Y376301D03*
D15*
X384302Y376555D03*
D13*
X378333Y376555D03*
D19*
X362966Y376555D03*
D15*
X356362Y376555D03*
D11*
X351409Y376555D03*
D42*
X384175Y376809D03*
D13*
X378079Y376809D03*
D43*
X363093Y376809D03*
D42*
X356489Y376809D03*
D11*
X351409Y376809D03*
D15*
X384048Y377063D03*
D13*
X377825Y377063D03*
D43*
X363347Y377063D03*
D15*
X356616Y377063D03*
D11*
X351663Y377063D03*
D15*
X383794Y377317D03*
D13*
X377571Y377317D03*
D43*
X363601Y377317D03*
D15*
X356870Y377317D03*
D11*
X351663Y377317D03*
D15*
X383794Y377571D03*
D42*
X377317Y377571D03*
D43*
X363855Y377571D03*
D15*
X356870Y377571D03*
D23*
X351790Y377571D03*
D15*
X383540Y377825D03*
D42*
X377063Y377825D03*
D19*
X363982Y377825D03*
D15*
X357124Y377825D03*
D11*
X351917Y377825D03*
D16*
X383413Y378079D03*
D42*
X376809Y378079D03*
D19*
X364236Y378079D03*
D16*
X357251Y378079D03*
D23*
X352044Y378079D03*
D15*
X383286Y378333D03*
D44*
X376428Y378333D03*
D43*
X364363Y378333D03*
D16*
X357505Y378333D03*
D11*
X352171Y378333D03*
D16*
X383159Y378587D03*
D42*
X376047Y378587D03*
D43*
X364617Y378587D03*
D16*
X357505Y378587D03*
D23*
X352298Y378587D03*
D16*
X382905Y378841D03*
D42*
X375793Y378841D03*
D43*
X364871Y378841D03*
D16*
X357759Y378841D03*
D11*
X352425Y378841D03*
D16*
X382651Y379095D03*
D15*
X375412Y379095D03*
D43*
X365125Y379095D03*
D16*
X358013Y379095D03*
D23*
X352552Y379095D03*
D40*
X382524Y379349D03*
D15*
X374904Y379349D03*
D43*
X365379Y379349D03*
D40*
X358140Y379349D03*
D11*
X352679Y379349D03*
D40*
X382270Y379603D03*
D16*
X374523Y379603D03*
D43*
X365633Y379603D03*
D16*
X358267Y379603D03*
D11*
X352933Y379603D03*
D40*
X382016Y379857D03*
X373888Y379857D03*
D43*
X365887Y379857D03*
D16*
X358521Y379857D03*
D11*
X352933Y379857D03*
D40*
X381762Y380111D03*
D46*
X373253Y380111D03*
D43*
X366141Y380111D03*
D16*
X358775Y380111D03*
D11*
X353187Y380111D03*
D37*
X381635Y380365D03*
D24*
X372237Y380365D03*
D43*
X366395Y380365D03*
D40*
X358902Y380365D03*
D23*
X353314Y380365D03*
D37*
X381381Y380619D03*
D50*
X369189Y380619D03*
D16*
X359029Y380619D03*
D11*
X353441Y380619D03*
D17*
X381000Y380873D03*
D49*
X369062Y380873D03*
D16*
X359283Y380873D03*
D11*
X353695Y380873D03*
D17*
X380746Y381127D03*
D48*
X368681Y381127D03*
D16*
X359537Y381127D03*
D11*
X353949Y381127D03*
D17*
X380492Y381381D03*
D58*
X370586Y381381D03*
D43*
X367157Y381381D03*
D16*
X359791Y381381D03*
D11*
X353949Y381381D03*
D46*
X380111Y381635D03*
D43*
X367411Y381635D03*
D15*
X359918Y381635D03*
D11*
X354203Y381635D03*
D19*
X379730Y381889D03*
D43*
X367665Y381889D03*
D15*
X360172Y381889D03*
D11*
X354457Y381889D03*
D19*
X379476Y382143D03*
D43*
X367919Y382143D03*
D16*
X360299Y382143D03*
D11*
X354711Y382143D03*
D43*
X379095Y382397D03*
X368173Y382397D03*
D16*
X360553Y382397D03*
D11*
X354711Y382397D03*
D21*
X378714Y382651D03*
D43*
X368427Y382651D03*
D15*
X360680Y382651D03*
D11*
X354965Y382651D03*
D41*
X378206Y382905D03*
D19*
X368554Y382905D03*
D15*
X360934Y382905D03*
D11*
X355219Y382905D03*
D57*
X377698Y383159D03*
D19*
X368808Y383159D03*
D15*
X361188Y383159D03*
D11*
X355473Y383159D03*
D38*
X377063Y383413D03*
D19*
X369062Y383413D03*
D15*
X361442Y383413D03*
D11*
X355727Y383413D03*
D59*
X376174Y383667D03*
D19*
X369316Y383667D03*
D16*
X361569Y383667D03*
D11*
X355981Y383667D03*
D60*
X373507Y383921D03*
D15*
X361696Y383921D03*
D11*
X356235Y383921D03*
D61*
X373253Y384175D03*
D15*
X361950Y384175D03*
D11*
X356489Y384175D03*
D62*
X373253Y384429D03*
D15*
X362204Y384429D03*
D11*
X356743Y384429D03*
D51*
X373126Y384683D03*
D42*
X362331Y384683D03*
D11*
X356997Y384683D03*
D63*
X349631Y384683D03*
D64*
X372872Y384937D03*
D42*
X362585Y384937D03*
D11*
X357505Y384937D03*
D63*
X353695Y384937D03*
D11*
X349631Y384937D03*
D65*
X372745Y385191D03*
D44*
X362712Y385191D03*
D11*
X353695Y385191D03*
D23*
X349504Y385191D03*
D20*
X372618Y385445D03*
D42*
X362839Y385445D03*
D23*
X353568Y385445D03*
D14*
X349631Y385445D03*
D48*
X372491Y385699D03*
D42*
X363093Y385699D03*
D23*
X353568Y385699D03*
D14*
X349631Y385699D03*
D18*
X372237Y385953D03*
D44*
X363220Y385953D03*
D23*
X353568Y385953D03*
D14*
X349377Y385953D03*
D39*
X371983Y386207D03*
D44*
X363474Y386207D03*
D14*
X353441Y386207D03*
X349377Y386207D03*
D21*
X371602Y386461D03*
D44*
X363728Y386461D03*
D13*
X353949Y386461D03*
D14*
X349377Y386461D03*
D37*
X371221Y386715D03*
D44*
X363982Y386715D03*
D17*
X353314Y386715D03*
D12*
X349250Y386715D03*
D37*
X371221Y386969D03*
D44*
X363982Y386969D03*
D46*
X353187Y386969D03*
D14*
X349123Y386969D03*
D40*
X371348Y387223D03*
D44*
X364236Y387223D03*
D46*
X353187Y387223D03*
D14*
X349123Y387223D03*
D37*
X371475Y387477D03*
D13*
X364363Y387477D03*
D37*
X353441Y387477D03*
D14*
X349123Y387477D03*
D40*
X371602Y387731D03*
D13*
X364617Y387731D03*
D42*
X353187Y387731D03*
D14*
X348869Y387731D03*
D40*
X371602Y387985D03*
D13*
X364617Y387985D03*
D14*
X353187Y387985D03*
X348869Y387985D03*
D40*
X371602Y388239D03*
D13*
X364871Y388239D03*
D23*
X353060Y388239D03*
D14*
X348869Y388239D03*
D16*
X371729Y388493D03*
D13*
X364871Y388493D03*
D23*
X353060Y388493D03*
X348742Y388493D03*
D40*
X371856Y388747D03*
D45*
X364998Y388747D03*
D11*
X352933Y388747D03*
D23*
X348742Y388747D03*
D40*
X371856Y389001D03*
D13*
X365125Y389001D03*
D11*
X352933Y389001D03*
D23*
X348742Y389001D03*
D40*
X371856Y389255D03*
D13*
X365125Y389255D03*
D63*
X352933Y389255D03*
D23*
X348742Y389255D03*
D40*
X371856Y389509D03*
D13*
X365125Y389509D03*
D47*
X352806Y389509D03*
D14*
X348869Y389509D03*
D16*
X371983Y389763D03*
D13*
X365379Y389763D03*
D14*
X348869Y389763D03*
D16*
X371983Y390017D03*
D13*
X365379Y390017D03*
D23*
X348996Y390017D03*
D16*
X371983Y390271D03*
D13*
X365379Y390271D03*
D23*
X348996Y390271D03*
D16*
X371983Y390525D03*
D13*
X365379Y390525D03*
D23*
X348996Y390525D03*
D16*
X371983Y390779D03*
D13*
X365379Y390779D03*
D11*
X349123Y390779D03*
D16*
X371983Y391033D03*
D13*
X365379Y391033D03*
D58*
X349250Y391033D03*
D16*
X371983Y391287D03*
D44*
X365252Y391287D03*
D66*
X349377Y391287D03*
D16*
X371983Y391541D03*
D44*
X365252Y391541D03*
D16*
X371983Y391795D03*
D44*
X365252Y391795D03*
D16*
X371983Y392049D03*
D44*
X365252Y392049D03*
D16*
X371983Y392303D03*
D44*
X365252Y392303D03*
D40*
X371856Y392557D03*
D44*
X364998Y392557D03*
D40*
X371856Y392811D03*
D44*
X364998Y392811D03*
D40*
X371856Y393065D03*
D44*
X364998Y393065D03*
D40*
X371856Y393319D03*
D44*
X364744Y393319D03*
D40*
X371602Y393573D03*
D42*
X364617Y393573D03*
D40*
X371602Y393827D03*
D44*
X364490Y393827D03*
D40*
X371602Y394081D03*
D44*
X364236Y394081D03*
D37*
X371475Y394335D03*
D44*
X363982Y394335D03*
D40*
X371348Y394589D03*
D44*
X363728Y394589D03*
D37*
X371221Y394843D03*
D42*
X363347Y394843D03*
D37*
X371221Y395097D03*
D42*
X363093Y395097D03*
D37*
X370967Y395351D03*
D42*
X362585Y395351D03*
D37*
X370967Y395605D03*
D16*
X361823Y395605D03*
D17*
X370840Y395859D03*
D44*
X361442Y395859D03*
D14*
X357759Y395859D03*
D17*
X370586Y396113D03*
D14*
X357759Y396113D03*
D46*
X370459Y396367D03*
D14*
X357759Y396367D03*
D46*
X370205Y396621D03*
D14*
X357759Y396621D03*
D19*
X370078Y396875D03*
D14*
X357759Y396875D03*
D19*
X369824Y397129D03*
D14*
X357759Y397129D03*
D19*
X369570Y397383D03*
D14*
X357759Y397383D03*
D43*
X369443Y397637D03*
D14*
X357759Y397637D03*
D21*
X369062Y397891D03*
D14*
X357759Y397891D03*
D21*
X368808Y398145D03*
D14*
X357759Y398145D03*
D41*
X368554Y398399D03*
D14*
X357759Y398399D03*
D57*
X368046Y398653D03*
D14*
X357759Y398653D03*
D36*
X367538Y398907D03*
D14*
X357759Y398907D03*
D67*
X366903Y399161D03*
D14*
X357759Y399161D03*
D20*
X366014Y399415D03*
D14*
X357759Y399415D03*
D34*
X365887Y399669D03*
D14*
X357759Y399669D03*
D35*
X365760Y399923D03*
D14*
X357759Y399923D03*
D48*
X365633Y400177D03*
D14*
X357759Y400177D03*
D59*
X365506Y400431D03*
D14*
X357759Y400431D03*
D68*
X365252Y400685D03*
D14*
X357759Y400685D03*
D18*
X365125Y400939D03*
D14*
X357759Y400939D03*
D38*
X364871Y401193D03*
D14*
X357759Y401193D03*
D57*
X364744Y401447D03*
D14*
X357759Y401447D03*
D41*
X364490Y401701D03*
D14*
X357759Y401701D03*
D21*
X364236Y401955D03*
D14*
X357759Y401955D03*
D19*
X363982Y402209D03*
D14*
X357759Y402209D03*
D37*
X363601Y402463D03*
D14*
X357759Y402463D03*
D15*
X363220Y402717D03*
D14*
X357759Y402717D03*
D45*
X362712Y402971D03*
D14*
X357759Y402971D03*
D69*
X670442Y249215D02*
X671332Y248325D01*
X671332Y246545D01*
X670442Y245656D01*
X666883Y245656D01*
X665993Y246545D01*
X665993Y248325D01*
X666883Y249215D01*
X668662Y249215D01*
X668662Y247435D01*
X665993Y251269D02*
X671332Y251269D01*
X665993Y254828D01*
X671332Y254828D01*
X671332Y256882D02*
X665993Y256882D01*
X665993Y259551D01*
X666883Y260441D01*
X670442Y260441D01*
X671332Y259551D01*
X671332Y256882D01*
X671332Y269915D02*
X670442Y270805D01*
X671332Y269915D02*
X671332Y268135D01*
X670442Y267246D01*
X669552Y267246D01*
X668662Y268135D01*
X668662Y269915D01*
X667773Y270805D01*
X666883Y270805D01*
X665993Y269915D01*
X665993Y268135D01*
X666883Y267246D01*
X671332Y275528D02*
X670442Y276418D01*
X671332Y275528D02*
X671332Y273749D01*
X670442Y272859D01*
X666883Y272859D01*
X665993Y273749D01*
X665993Y275528D01*
X666883Y276418D01*
X665993Y278472D02*
X671332Y278472D01*
X665993Y278472D02*
X665993Y282031D01*
X671322Y288306D02*
X670432Y289196D01*
X671322Y288306D02*
X671322Y286527D01*
X670432Y285637D01*
X669542Y285637D01*
X668652Y286527D01*
X668652Y288306D01*
X667763Y289196D01*
X666873Y289196D01*
X665983Y288306D01*
X665983Y286527D01*
X666873Y285637D01*
X665983Y291250D02*
X671322Y291250D01*
X665983Y291250D02*
X665983Y293919D01*
X666873Y294809D01*
X670432Y294809D01*
X671322Y293919D01*
X671322Y291250D01*
X669542Y296863D02*
X665983Y296863D01*
X669542Y296863D02*
X671322Y298643D01*
X669542Y300422D01*
X665983Y300422D01*
X668652Y300422D02*
X668652Y296863D01*
X669172Y305346D02*
X670062Y306235D01*
X670062Y308015D01*
X669172Y308905D01*
X668282Y308905D01*
X667392Y308015D01*
X667392Y307125D01*
X667392Y308015D02*
X666503Y308905D01*
X665613Y308905D01*
X664723Y308015D01*
X664723Y306235D01*
X665613Y305346D01*
X666503Y310959D02*
X670062Y310959D01*
X666503Y310959D02*
X664723Y312738D01*
X666503Y314518D01*
X670062Y314518D01*
X669172Y316572D02*
X670062Y317462D01*
X670062Y319241D01*
X669172Y320131D01*
X668282Y320131D01*
X667392Y319241D01*
X667392Y318351D01*
X667392Y319241D02*
X666503Y320131D01*
X665613Y320131D01*
X664723Y319241D01*
X664723Y317462D01*
X665613Y316572D01*
X638302Y43957D02*
X637412Y43067D01*
X638302Y43957D02*
X638302Y45736D01*
X637412Y46626D01*
X636522Y46626D01*
X635632Y45736D01*
X635632Y44847D01*
X635632Y45736D02*
X634743Y46626D01*
X633853Y46626D01*
X632963Y45736D01*
X632963Y43957D01*
X633853Y43067D01*
X633853Y48680D02*
X632963Y49570D01*
X632963Y51349D01*
X633853Y52239D01*
X637412Y52239D01*
X638302Y51349D01*
X638302Y49570D01*
X637412Y48680D01*
X636522Y48680D01*
X635632Y49570D01*
X635632Y52239D01*
X614172Y43957D02*
X613282Y43067D01*
X614172Y43957D02*
X614172Y45736D01*
X613282Y46626D01*
X612392Y46626D01*
X611502Y45736D01*
X611502Y44847D01*
X611502Y45736D02*
X610613Y46626D01*
X609723Y46626D01*
X608833Y45736D01*
X608833Y43957D01*
X609723Y43067D01*
X613282Y50460D02*
X614172Y52239D01*
X613282Y50460D02*
X611502Y48680D01*
X609723Y48680D01*
X608833Y49570D01*
X608833Y51349D01*
X609723Y52239D01*
X610613Y52239D01*
X611502Y51349D01*
X611502Y48680D01*
X588772Y43957D02*
X587882Y43067D01*
X588772Y43957D02*
X588772Y45736D01*
X587882Y46626D01*
X586992Y46626D01*
X586102Y45736D01*
X586102Y44847D01*
X586102Y45736D02*
X585213Y46626D01*
X584323Y46626D01*
X583433Y45736D01*
X583433Y43957D01*
X584323Y43067D01*
X588772Y48680D02*
X588772Y52239D01*
X588772Y48680D02*
X586102Y48680D01*
X586992Y50460D01*
X586992Y51349D01*
X586102Y52239D01*
X584323Y52239D01*
X583433Y51349D01*
X583433Y49570D01*
X584323Y48680D01*
X560832Y43957D02*
X559942Y43067D01*
X560832Y43957D02*
X560832Y45736D01*
X559942Y46626D01*
X559052Y46626D01*
X558162Y45736D01*
X558162Y44847D01*
X558162Y45736D02*
X557273Y46626D01*
X556383Y46626D01*
X555493Y45736D01*
X555493Y43957D01*
X556383Y43067D01*
X555493Y51349D02*
X560832Y51349D01*
X558162Y48680D01*
X558162Y52239D01*
X536702Y43957D02*
X535812Y43067D01*
X536702Y43957D02*
X536702Y45736D01*
X535812Y46626D01*
X534922Y46626D01*
X534032Y45736D01*
X534032Y44847D01*
X534032Y45736D02*
X533143Y46626D01*
X532253Y46626D01*
X531363Y45736D01*
X531363Y43957D01*
X532253Y43067D01*
X535812Y48680D02*
X536702Y49570D01*
X536702Y51349D01*
X535812Y52239D01*
X534922Y52239D01*
X534032Y51349D01*
X534032Y50460D01*
X534032Y51349D02*
X533143Y52239D01*
X532253Y52239D01*
X531363Y51349D01*
X531363Y49570D01*
X532253Y48680D01*
X512572Y45227D02*
X511682Y44337D01*
X512572Y45227D02*
X512572Y47006D01*
X511682Y47896D01*
X510792Y47896D01*
X509902Y47006D01*
X509902Y46117D01*
X509902Y47006D02*
X509013Y47896D01*
X508123Y47896D01*
X507233Y47006D01*
X507233Y45227D01*
X508123Y44337D01*
X507233Y49950D02*
X507233Y53509D01*
X507233Y49950D02*
X510792Y53509D01*
X511682Y53509D01*
X512572Y52619D01*
X512572Y50840D01*
X511682Y49950D01*
X459232Y43067D02*
X455673Y43067D01*
X453893Y44847D01*
X455673Y46626D01*
X459232Y46626D01*
X453893Y48680D02*
X453893Y50460D01*
X453893Y49570D02*
X459232Y49570D01*
X459232Y48680D02*
X459232Y50460D01*
X459232Y52422D02*
X453893Y52422D01*
X453893Y55981D02*
X459232Y52422D01*
X459232Y55981D02*
X453893Y55981D01*
X433832Y45736D02*
X432942Y46626D01*
X433832Y45736D02*
X433832Y43957D01*
X432942Y43067D01*
X429383Y43067D01*
X428493Y43957D01*
X428493Y45736D01*
X429383Y46626D01*
X431162Y46626D01*
X431162Y44847D01*
X428493Y48680D02*
X433832Y48680D01*
X428493Y52239D01*
X433832Y52239D01*
X433832Y54293D02*
X428493Y54293D01*
X428493Y56962D01*
X429383Y57852D01*
X432942Y57852D01*
X433832Y56962D01*
X433832Y54293D01*
X408432Y45736D02*
X407542Y46626D01*
X408432Y45736D02*
X408432Y43957D01*
X407542Y43067D01*
X403983Y43067D01*
X403093Y43957D01*
X403093Y45736D01*
X403983Y46626D01*
X405762Y46626D01*
X405762Y44847D01*
X403093Y48680D02*
X408432Y48680D01*
X403093Y52239D01*
X408432Y52239D01*
X408432Y54293D02*
X403093Y54293D01*
X403093Y56962D01*
X403983Y57852D01*
X407542Y57852D01*
X408432Y56962D01*
X408432Y54293D01*
X383032Y46626D02*
X383032Y43067D01*
X380362Y43067D01*
X381252Y44847D01*
X381252Y45736D01*
X380362Y46626D01*
X378583Y46626D01*
X377693Y45736D01*
X377693Y43957D01*
X378583Y43067D01*
X379473Y48680D02*
X383032Y48680D01*
X379473Y48680D02*
X377693Y50460D01*
X379473Y52239D01*
X383032Y52239D01*
X357632Y43957D02*
X356742Y43067D01*
X357632Y43957D02*
X357632Y45736D01*
X356742Y46626D01*
X355852Y46626D01*
X354962Y45736D01*
X354962Y44847D01*
X354962Y45736D02*
X354073Y46626D01*
X353183Y46626D01*
X352293Y45736D01*
X352293Y43957D01*
X353183Y43067D01*
X354073Y48680D02*
X357632Y48680D01*
X354073Y48680D02*
X352293Y50460D01*
X354073Y52239D01*
X357632Y52239D01*
X356742Y54293D02*
X357632Y55183D01*
X357632Y56962D01*
X356742Y57852D01*
X355852Y57852D01*
X354962Y56962D01*
X354962Y56073D01*
X354962Y56962D02*
X354073Y57852D01*
X353183Y57852D01*
X352293Y56962D01*
X352293Y55183D01*
X353183Y54293D01*
X330962Y46626D02*
X330962Y43067D01*
X328292Y43067D01*
X329182Y44847D01*
X329182Y45736D01*
X328292Y46626D01*
X326513Y46626D01*
X325623Y45736D01*
X325623Y43957D01*
X326513Y43067D01*
X327403Y48680D02*
X330962Y48680D01*
X327403Y48680D02*
X325623Y50460D01*
X327403Y52239D01*
X330962Y52239D01*
X305562Y43957D02*
X304672Y43067D01*
X305562Y43957D02*
X305562Y45736D01*
X304672Y46626D01*
X303782Y46626D01*
X302892Y45736D01*
X302892Y44847D01*
X302892Y45736D02*
X302003Y46626D01*
X301113Y46626D01*
X300223Y45736D01*
X300223Y43957D01*
X301113Y43067D01*
X302003Y48680D02*
X305562Y48680D01*
X302003Y48680D02*
X300223Y50460D01*
X302003Y52239D01*
X305562Y52239D01*
X304672Y54293D02*
X305562Y55183D01*
X305562Y56962D01*
X304672Y57852D01*
X303782Y57852D01*
X302892Y56962D01*
X302892Y56073D01*
X302892Y56962D02*
X302003Y57852D01*
X301113Y57852D01*
X300223Y56962D01*
X300223Y55183D01*
X301113Y54293D01*
X290081Y49032D02*
X290081Y43693D01*
X290081Y49032D02*
X287411Y49032D01*
X286522Y48142D01*
X286522Y46362D01*
X287411Y45473D01*
X290081Y45473D01*
X288301Y45473D02*
X286522Y43693D01*
X284467Y49032D02*
X280908Y49032D01*
X284467Y49032D02*
X284467Y43693D01*
X280908Y43693D01*
X282688Y46362D02*
X284467Y46362D01*
X276185Y49032D02*
X275295Y48142D01*
X276185Y49032D02*
X277965Y49032D01*
X278854Y48142D01*
X278854Y47252D01*
X277965Y46362D01*
X276185Y46362D01*
X275295Y45473D01*
X275295Y44583D01*
X276185Y43693D01*
X277965Y43693D01*
X278854Y44583D01*
X273241Y49032D02*
X269682Y49032D01*
X273241Y49032D02*
X273241Y43693D01*
X269682Y43693D01*
X271462Y46362D02*
X273241Y46362D01*
X265849Y43693D02*
X265849Y49032D01*
X267628Y49032D02*
X264069Y49032D01*
X84341Y308363D02*
X84341Y311922D01*
X84341Y308363D02*
X82561Y306583D01*
X80782Y308363D01*
X80782Y311922D01*
X78727Y311922D02*
X78727Y306583D01*
X78727Y311922D02*
X76058Y311922D01*
X75168Y311032D01*
X75168Y310142D01*
X76058Y309252D01*
X75168Y308363D01*
X75168Y307473D01*
X76058Y306583D01*
X78727Y306583D01*
X78727Y309252D02*
X76058Y309252D01*
X73114Y310142D02*
X73114Y306583D01*
X73114Y310142D02*
X71335Y311922D01*
X69555Y310142D01*
X69555Y306583D01*
X69555Y309252D02*
X73114Y309252D01*
X65722Y306583D02*
X65722Y311922D01*
X67501Y311922D02*
X63942Y311922D01*
X61888Y309252D02*
X58329Y309252D01*
X85611Y286522D02*
X85611Y282963D01*
X83831Y281183D01*
X82052Y282963D01*
X82052Y286522D01*
X79997Y286522D02*
X79997Y281183D01*
X79997Y286522D02*
X77328Y286522D01*
X76438Y285632D01*
X76438Y284742D01*
X77328Y283852D01*
X76438Y282963D01*
X76438Y282073D01*
X77328Y281183D01*
X79997Y281183D01*
X79997Y283852D02*
X77328Y283852D01*
X74384Y284742D02*
X74384Y281183D01*
X74384Y284742D02*
X72605Y286522D01*
X70825Y284742D01*
X70825Y281183D01*
X70825Y283852D02*
X74384Y283852D01*
X66992Y281183D02*
X66992Y286522D01*
X68771Y286522D02*
X65212Y286522D01*
X63158Y283852D02*
X59599Y283852D01*
X61379Y282073D02*
X61379Y285632D01*
X190248Y487620D02*
X191138Y488510D01*
X192917Y488510D01*
X193807Y487620D01*
X193807Y486730D01*
X192917Y485840D01*
X191138Y485840D01*
X190248Y484951D01*
X190248Y484061D01*
X191138Y483171D01*
X192917Y483171D01*
X193807Y484061D01*
X185525Y488510D02*
X184635Y487620D01*
X185525Y488510D02*
X187304Y488510D01*
X188194Y487620D01*
X188194Y484061D01*
X187304Y483171D01*
X185525Y483171D01*
X184635Y484061D01*
X182581Y483171D02*
X182581Y488510D01*
X182581Y483171D02*
X179022Y483171D01*
X214444Y474659D02*
X215334Y473769D01*
X215334Y471989D01*
X214444Y471100D01*
X213554Y471100D01*
X212664Y471989D01*
X212664Y473769D01*
X211775Y474659D01*
X210885Y474659D01*
X209995Y473769D01*
X209995Y471989D01*
X210885Y471100D01*
X209995Y476713D02*
X215334Y476713D01*
X209995Y476713D02*
X209995Y479382D01*
X210885Y480272D01*
X214444Y480272D01*
X215334Y479382D01*
X215334Y476713D01*
X213554Y482326D02*
X209995Y482326D01*
X213554Y482326D02*
X215334Y484105D01*
X213554Y485885D01*
X209995Y485885D01*
X212664Y485885D02*
X212664Y482326D01*
X241114Y477199D02*
X242004Y476309D01*
X242004Y474529D01*
X241114Y473640D01*
X237555Y473640D01*
X236665Y474529D01*
X236665Y476309D01*
X237555Y477199D01*
X239334Y477199D01*
X239334Y475419D01*
X236665Y479253D02*
X242004Y479253D01*
X236665Y482812D01*
X242004Y482812D01*
X242004Y484866D02*
X236665Y484866D01*
X236665Y487535D01*
X237555Y488425D01*
X241114Y488425D01*
X242004Y487535D01*
X242004Y484866D01*
X265244Y477199D02*
X266134Y476309D01*
X266134Y474529D01*
X265244Y473640D01*
X261685Y473640D01*
X260795Y474529D01*
X260795Y476309D01*
X261685Y477199D01*
X263464Y477199D01*
X263464Y475419D01*
X260795Y479253D02*
X266134Y479253D01*
X260795Y482812D01*
X266134Y482812D01*
X266134Y484866D02*
X260795Y484866D01*
X260795Y487535D01*
X261685Y488425D01*
X265244Y488425D01*
X266134Y487535D01*
X266134Y484866D01*
X289944Y479375D02*
X291724Y481154D01*
X286385Y481154D01*
X286385Y479375D02*
X286385Y482934D01*
X290834Y484988D02*
X291724Y485878D01*
X291724Y487657D01*
X290834Y488547D01*
X289944Y488547D01*
X289054Y487657D01*
X288165Y488547D01*
X287275Y488547D01*
X286385Y487657D01*
X286385Y485878D01*
X287275Y484988D01*
X288165Y484988D01*
X289054Y485878D01*
X289944Y484988D01*
X290834Y484988D01*
X289054Y485878D02*
X289054Y487657D01*
X316614Y479375D02*
X318394Y481154D01*
X313055Y481154D01*
X313055Y479375D02*
X313055Y482934D01*
X313945Y484988D02*
X313055Y485878D01*
X313055Y487657D01*
X313945Y488547D01*
X317504Y488547D01*
X318394Y487657D01*
X318394Y485878D01*
X317504Y484988D01*
X316614Y484988D01*
X315724Y485878D01*
X315724Y488547D01*
X338455Y482934D02*
X338455Y479375D01*
X342014Y482934D01*
X342904Y482934D01*
X343794Y482044D01*
X343794Y480265D01*
X342904Y479375D01*
X342904Y484988D02*
X343794Y485878D01*
X343794Y487657D01*
X342904Y488547D01*
X342014Y488547D01*
X341124Y487657D01*
X341124Y486767D01*
X341124Y487657D02*
X340235Y488547D01*
X339345Y488547D01*
X338455Y487657D01*
X338455Y485878D01*
X339345Y484988D01*
X369194Y484988D02*
X369194Y488547D01*
X369194Y484988D02*
X366524Y484988D01*
X367414Y486767D01*
X367414Y487657D01*
X366524Y488547D01*
X364745Y488547D01*
X363855Y487657D01*
X363855Y485878D01*
X364745Y484988D01*
X389255Y481664D02*
X389255Y478105D01*
X392814Y481664D01*
X393704Y481664D01*
X394594Y480774D01*
X394594Y478995D01*
X393704Y478105D01*
X393704Y485497D02*
X394594Y487277D01*
X393704Y485497D02*
X391924Y483718D01*
X390145Y483718D01*
X389255Y484608D01*
X389255Y486387D01*
X390145Y487277D01*
X391035Y487277D01*
X391924Y486387D01*
X391924Y483718D01*
X413385Y482934D02*
X413385Y479375D01*
X416944Y482934D01*
X417834Y482934D01*
X418724Y482044D01*
X418724Y480265D01*
X417834Y479375D01*
X418724Y484988D02*
X418724Y488547D01*
X418724Y484988D02*
X416054Y484988D01*
X416944Y486767D01*
X416944Y487657D01*
X416054Y488547D01*
X414275Y488547D01*
X413385Y487657D01*
X413385Y485878D01*
X414275Y484988D01*
X457584Y478105D02*
X459364Y479884D01*
X454025Y479884D01*
X454025Y478105D02*
X454025Y481664D01*
X459364Y483718D02*
X459364Y487277D01*
X458474Y487277D01*
X454915Y483718D01*
X454025Y483718D01*
X482984Y479375D02*
X484764Y481154D01*
X479425Y481154D01*
X479425Y479375D02*
X479425Y482934D01*
X483874Y486767D02*
X484764Y488547D01*
X483874Y486767D02*
X482094Y484988D01*
X480315Y484988D01*
X479425Y485878D01*
X479425Y487657D01*
X480315Y488547D01*
X481205Y488547D01*
X482094Y487657D01*
X482094Y484988D01*
X508384Y479375D02*
X510164Y481154D01*
X504825Y481154D01*
X504825Y479375D02*
X504825Y482934D01*
X509274Y484988D02*
X510164Y485878D01*
X510164Y487657D01*
X509274Y488547D01*
X508384Y488547D01*
X507494Y487657D01*
X507494Y486767D01*
X507494Y487657D02*
X506605Y488547D01*
X505715Y488547D01*
X504825Y487657D01*
X504825Y485878D01*
X505715Y484988D01*
X533784Y479375D02*
X535564Y481154D01*
X530225Y481154D01*
X530225Y479375D02*
X530225Y482934D01*
X530225Y484988D02*
X530225Y488547D01*
X530225Y484988D02*
X533784Y488547D01*
X534674Y488547D01*
X535564Y487657D01*
X535564Y485878D01*
X534674Y484988D01*
X559184Y479375D02*
X560964Y481154D01*
X555625Y481154D01*
X555625Y479375D02*
X555625Y482934D01*
X555625Y487657D02*
X560964Y487657D01*
X558294Y484988D01*
X558294Y488547D01*
X581025Y487657D02*
X586364Y487657D01*
X583694Y484988D01*
X583694Y488547D01*
X606171Y478411D02*
X611510Y478411D01*
X611510Y480190D02*
X611510Y476631D01*
X611510Y482244D02*
X606171Y485803D01*
X606171Y482244D02*
X611510Y485803D01*
X610620Y487857D02*
X607061Y487857D01*
X610620Y487857D02*
X611510Y488747D01*
X611510Y490526D01*
X610620Y491416D01*
X607061Y491416D01*
X606171Y490526D01*
X606171Y488747D01*
X607061Y487857D01*
X610620Y491416D01*
X632841Y476631D02*
X638180Y476631D01*
X638180Y479300D01*
X637290Y480190D01*
X635510Y480190D01*
X634621Y479300D01*
X634621Y476631D01*
X634621Y478411D02*
X632841Y480190D01*
X632841Y485803D02*
X638180Y482244D01*
X638180Y485803D02*
X632841Y482244D01*
X633731Y487857D02*
X637290Y487857D01*
X638180Y488747D01*
X638180Y490526D01*
X637290Y491416D01*
X633731Y491416D01*
X632841Y490526D01*
X632841Y488747D01*
X633731Y487857D01*
X637290Y491416D01*
X76041Y129042D02*
X76041Y125483D01*
X74262Y123703D01*
X72482Y125483D01*
X72482Y129042D01*
X70428Y123703D02*
X68649Y123703D01*
X69539Y123703D02*
X69539Y129042D01*
X70428Y129042D02*
X68649Y129042D01*
X66686Y129042D02*
X66686Y123703D01*
X63127Y123703D02*
X66686Y129042D01*
X63127Y129042D02*
X63127Y123703D01*
X55460Y129042D02*
X51901Y129042D01*
X55460Y129042D02*
X55460Y126372D01*
X53681Y127262D01*
X52791Y127262D01*
X51901Y126372D01*
X51901Y124593D01*
X52791Y123703D01*
X54570Y123703D01*
X55460Y124593D01*
X49847Y126372D02*
X46288Y126372D01*
X44234Y128152D02*
X43344Y129042D01*
X41565Y129042D01*
X40675Y128152D01*
X40675Y127262D01*
X41565Y126372D01*
X42454Y126372D01*
X41565Y126372D02*
X40675Y125483D01*
X40675Y124593D01*
X41565Y123703D01*
X43344Y123703D01*
X44234Y124593D01*
X38621Y124593D02*
X38621Y128152D01*
X37731Y129042D01*
X35951Y129042D01*
X35062Y128152D01*
X35062Y124593D01*
X35951Y123703D01*
X37731Y123703D01*
X38621Y124593D01*
X35062Y128152D01*
X27395Y129042D02*
X27395Y125483D01*
X25615Y123703D01*
X23836Y125483D01*
X23836Y129042D01*
X21781Y129042D02*
X21781Y123703D01*
X19112Y123703D01*
X18222Y124593D01*
X18222Y128152D01*
X19112Y129042D01*
X21781Y129042D01*
X13499Y129042D02*
X12609Y128152D01*
X13499Y129042D02*
X15279Y129042D01*
X16168Y128152D01*
X16168Y124593D01*
X15279Y123703D01*
X13499Y123703D01*
X12609Y124593D01*
M02*
