G04 EAGLE Gerber RS-274X export*
G75*
%MOMM*%
%FSLAX34Y34*%
%LPD*%
%INSoldermask Bottom*%
%IPPOS*%
%AMOC8*
5,1,8,0,0,1.08239X$1,22.5*%
G01*
%ADD10C,3.403200*%
%ADD11C,1.625600*%
%ADD12C,0.911200*%
%ADD13C,0.803200*%
%ADD14R,1.511200X1.511200*%
%ADD15C,1.511200*%
%ADD16P,4.549502X8X202.500000*%
%ADD17P,4.549502X8X112.500000*%
%ADD18C,2.153200*%
%ADD19C,1.203200*%
%ADD20P,2.034460X8X112.500000*%
%ADD21P,2.034460X8X292.500000*%
%ADD22R,5.283200X2.489200*%
%ADD23C,1.879600*%
%ADD24C,1.219200*%

G36*
X627430Y272681D02*
X627430Y272681D01*
X627481Y272683D01*
X627513Y272701D01*
X627549Y272709D01*
X627588Y272742D01*
X627633Y272766D01*
X627654Y272796D01*
X627682Y272819D01*
X627703Y272866D01*
X627733Y272908D01*
X627741Y272950D01*
X627753Y272978D01*
X627752Y273008D01*
X627760Y273050D01*
X627760Y452120D01*
X627749Y452170D01*
X627747Y452221D01*
X627729Y452253D01*
X627721Y452289D01*
X627688Y452328D01*
X627664Y452373D01*
X627634Y452394D01*
X627611Y452422D01*
X627564Y452443D01*
X627522Y452473D01*
X627480Y452481D01*
X627452Y452493D01*
X627422Y452492D01*
X627380Y452500D01*
X558800Y452500D01*
X558750Y452489D01*
X558699Y452487D01*
X558667Y452469D01*
X558631Y452461D01*
X558592Y452428D01*
X558547Y452404D01*
X558526Y452374D01*
X558498Y452351D01*
X558477Y452304D01*
X558447Y452262D01*
X558439Y452220D01*
X558427Y452192D01*
X558428Y452162D01*
X558420Y452120D01*
X558420Y273050D01*
X558431Y273000D01*
X558433Y272949D01*
X558451Y272917D01*
X558459Y272881D01*
X558492Y272842D01*
X558516Y272797D01*
X558546Y272776D01*
X558569Y272748D01*
X558616Y272727D01*
X558658Y272697D01*
X558700Y272689D01*
X558728Y272677D01*
X558758Y272678D01*
X558800Y272670D01*
X627380Y272670D01*
X627430Y272681D01*
G37*
G36*
X63713Y349213D02*
X63713Y349213D01*
X63716Y349211D01*
X64828Y349336D01*
X64834Y349342D01*
X64839Y349339D01*
X65896Y349709D01*
X65900Y349716D01*
X65906Y349713D01*
X66854Y350309D01*
X66857Y350317D01*
X66862Y350316D01*
X67654Y351108D01*
X67655Y351116D01*
X67661Y351116D01*
X68257Y352064D01*
X68256Y352073D01*
X68261Y352074D01*
X68631Y353131D01*
X68630Y353135D01*
X68632Y353137D01*
X68630Y353140D01*
X68634Y353142D01*
X68759Y354255D01*
X68755Y354261D01*
X68759Y354265D01*
X68646Y355368D01*
X68640Y355374D01*
X68644Y355379D01*
X68288Y356428D01*
X68281Y356433D01*
X68283Y356438D01*
X67703Y357383D01*
X67696Y357386D01*
X67696Y357392D01*
X66921Y358183D01*
X66912Y358185D01*
X66912Y358190D01*
X65979Y358790D01*
X65971Y358789D01*
X65970Y358794D01*
X64927Y359171D01*
X64919Y359169D01*
X64916Y359174D01*
X63816Y359309D01*
X63813Y359307D01*
X63812Y359307D01*
X63810Y359309D01*
X52810Y359309D01*
X52807Y359307D01*
X52805Y359309D01*
X51680Y359194D01*
X51674Y359188D01*
X51669Y359191D01*
X50598Y358828D01*
X50594Y358821D01*
X50588Y358824D01*
X49625Y358231D01*
X49622Y358224D01*
X49616Y358225D01*
X48808Y357433D01*
X48807Y357425D01*
X48802Y357424D01*
X48190Y356473D01*
X48191Y356467D01*
X48187Y356464D01*
X48187Y356463D01*
X48186Y356463D01*
X47801Y355399D01*
X47804Y355391D01*
X47799Y355388D01*
X47661Y354266D01*
X47665Y354259D01*
X47661Y354255D01*
X47786Y353142D01*
X47792Y353136D01*
X47789Y353131D01*
X48159Y352074D01*
X48166Y352070D01*
X48163Y352064D01*
X48759Y351116D01*
X48767Y351113D01*
X48766Y351108D01*
X49558Y350316D01*
X49566Y350315D01*
X49566Y350309D01*
X50514Y349713D01*
X50523Y349714D01*
X50524Y349709D01*
X51581Y349339D01*
X51589Y349341D01*
X51592Y349336D01*
X52705Y349211D01*
X52708Y349213D01*
X52710Y349211D01*
X63710Y349211D01*
X63713Y349213D01*
G37*
G36*
X63713Y435713D02*
X63713Y435713D01*
X63716Y435711D01*
X64828Y435836D01*
X64834Y435842D01*
X64839Y435839D01*
X65896Y436209D01*
X65900Y436216D01*
X65906Y436213D01*
X66854Y436809D01*
X66857Y436817D01*
X66862Y436816D01*
X67654Y437608D01*
X67655Y437616D01*
X67661Y437616D01*
X68257Y438564D01*
X68256Y438573D01*
X68261Y438574D01*
X68631Y439631D01*
X68630Y439635D01*
X68632Y439637D01*
X68630Y439640D01*
X68634Y439642D01*
X68759Y440755D01*
X68755Y440762D01*
X68759Y440766D01*
X68634Y441878D01*
X68628Y441884D01*
X68631Y441889D01*
X68261Y442946D01*
X68255Y442950D01*
X68257Y442956D01*
X67661Y443904D01*
X67653Y443907D01*
X67654Y443912D01*
X66862Y444704D01*
X66854Y444705D01*
X66854Y444711D01*
X65906Y445307D01*
X65897Y445306D01*
X65896Y445311D01*
X64839Y445681D01*
X64831Y445679D01*
X64828Y445684D01*
X63716Y445809D01*
X63712Y445807D01*
X63710Y445809D01*
X52710Y445809D01*
X52707Y445807D01*
X52706Y445807D01*
X52705Y445809D01*
X51592Y445684D01*
X51586Y445678D01*
X51581Y445681D01*
X50524Y445311D01*
X50520Y445305D01*
X50514Y445307D01*
X49566Y444711D01*
X49563Y444703D01*
X49558Y444704D01*
X48766Y443912D01*
X48765Y443904D01*
X48759Y443904D01*
X48163Y442956D01*
X48164Y442947D01*
X48159Y442946D01*
X47789Y441889D01*
X47791Y441883D01*
X47787Y441880D01*
X47788Y441879D01*
X47786Y441878D01*
X47661Y440766D01*
X47665Y440758D01*
X47661Y440755D01*
X47786Y439642D01*
X47792Y439636D01*
X47789Y439631D01*
X48159Y438574D01*
X48166Y438570D01*
X48163Y438564D01*
X48759Y437616D01*
X48767Y437613D01*
X48766Y437608D01*
X49558Y436816D01*
X49566Y436815D01*
X49566Y436809D01*
X50514Y436213D01*
X50523Y436214D01*
X50524Y436209D01*
X51581Y435839D01*
X51589Y435841D01*
X51592Y435836D01*
X52705Y435711D01*
X52708Y435713D01*
X52710Y435711D01*
X63710Y435711D01*
X63713Y435713D01*
G37*
G36*
X20513Y435713D02*
X20513Y435713D01*
X20516Y435711D01*
X21628Y435836D01*
X21634Y435842D01*
X21639Y435839D01*
X22696Y436209D01*
X22700Y436216D01*
X22706Y436213D01*
X23654Y436809D01*
X23657Y436817D01*
X23662Y436816D01*
X24454Y437608D01*
X24455Y437616D01*
X24461Y437616D01*
X25057Y438564D01*
X25056Y438573D01*
X25061Y438574D01*
X25431Y439631D01*
X25430Y439635D01*
X25432Y439637D01*
X25430Y439640D01*
X25434Y439642D01*
X25559Y440755D01*
X25555Y440762D01*
X25559Y440766D01*
X25434Y441878D01*
X25428Y441884D01*
X25431Y441889D01*
X25061Y442946D01*
X25055Y442950D01*
X25057Y442956D01*
X24461Y443904D01*
X24453Y443907D01*
X24454Y443912D01*
X23662Y444704D01*
X23654Y444705D01*
X23654Y444711D01*
X22706Y445307D01*
X22697Y445306D01*
X22696Y445311D01*
X21639Y445681D01*
X21631Y445679D01*
X21628Y445684D01*
X20516Y445809D01*
X20512Y445807D01*
X20510Y445809D01*
X12510Y445809D01*
X12507Y445807D01*
X12506Y445807D01*
X12505Y445809D01*
X11392Y445684D01*
X11386Y445678D01*
X11381Y445681D01*
X10324Y445311D01*
X10320Y445305D01*
X10314Y445307D01*
X9366Y444711D01*
X9363Y444703D01*
X9358Y444704D01*
X8566Y443912D01*
X8565Y443904D01*
X8559Y443904D01*
X7963Y442956D01*
X7964Y442947D01*
X7959Y442946D01*
X7589Y441889D01*
X7591Y441883D01*
X7587Y441880D01*
X7588Y441879D01*
X7586Y441878D01*
X7461Y440766D01*
X7465Y440758D01*
X7461Y440755D01*
X7586Y439642D01*
X7592Y439636D01*
X7589Y439631D01*
X7959Y438574D01*
X7966Y438570D01*
X7963Y438564D01*
X8559Y437616D01*
X8567Y437613D01*
X8566Y437608D01*
X9358Y436816D01*
X9366Y436815D01*
X9366Y436809D01*
X10314Y436213D01*
X10323Y436214D01*
X10324Y436209D01*
X11381Y435839D01*
X11389Y435841D01*
X11392Y435836D01*
X12505Y435711D01*
X12508Y435713D01*
X12510Y435711D01*
X20510Y435711D01*
X20513Y435713D01*
G37*
G36*
X20513Y349213D02*
X20513Y349213D01*
X20516Y349211D01*
X21628Y349336D01*
X21634Y349342D01*
X21639Y349339D01*
X22696Y349709D01*
X22700Y349716D01*
X22706Y349713D01*
X23654Y350309D01*
X23657Y350317D01*
X23662Y350316D01*
X24454Y351108D01*
X24455Y351116D01*
X24461Y351116D01*
X25057Y352064D01*
X25056Y352073D01*
X25061Y352074D01*
X25431Y353131D01*
X25430Y353135D01*
X25432Y353137D01*
X25430Y353140D01*
X25434Y353142D01*
X25559Y354255D01*
X25555Y354262D01*
X25559Y354266D01*
X25434Y355378D01*
X25428Y355384D01*
X25431Y355389D01*
X25061Y356446D01*
X25055Y356450D01*
X25057Y356456D01*
X24461Y357404D01*
X24453Y357407D01*
X24454Y357412D01*
X23662Y358204D01*
X23654Y358205D01*
X23654Y358211D01*
X22706Y358807D01*
X22697Y358806D01*
X22696Y358811D01*
X21639Y359181D01*
X21631Y359179D01*
X21628Y359184D01*
X20516Y359309D01*
X20512Y359307D01*
X20510Y359309D01*
X12510Y359309D01*
X12507Y359307D01*
X12506Y359307D01*
X12505Y359309D01*
X11392Y359184D01*
X11386Y359178D01*
X11381Y359181D01*
X10324Y358811D01*
X10320Y358805D01*
X10314Y358807D01*
X9366Y358211D01*
X9363Y358203D01*
X9358Y358204D01*
X8566Y357412D01*
X8565Y357404D01*
X8559Y357404D01*
X7963Y356456D01*
X7964Y356447D01*
X7959Y356446D01*
X7589Y355389D01*
X7591Y355383D01*
X7587Y355380D01*
X7588Y355379D01*
X7586Y355378D01*
X7461Y354266D01*
X7465Y354258D01*
X7461Y354255D01*
X7586Y353142D01*
X7592Y353136D01*
X7589Y353131D01*
X7959Y352074D01*
X7966Y352070D01*
X7963Y352064D01*
X8559Y351116D01*
X8567Y351113D01*
X8566Y351108D01*
X9358Y350316D01*
X9366Y350315D01*
X9366Y350309D01*
X10314Y349713D01*
X10323Y349714D01*
X10324Y349709D01*
X11381Y349339D01*
X11389Y349341D01*
X11392Y349336D01*
X12505Y349211D01*
X12508Y349213D01*
X12510Y349211D01*
X20510Y349211D01*
X20513Y349213D01*
G37*
D10*
X660400Y355600D03*
X660400Y76200D03*
X152400Y508000D03*
X139700Y25400D03*
D11*
X635000Y500888D02*
X635000Y515112D01*
X609600Y515112D02*
X609600Y500888D01*
X584200Y500888D02*
X584200Y515112D01*
X558800Y515112D02*
X558800Y500888D01*
X533400Y500888D02*
X533400Y515112D01*
X508000Y515112D02*
X508000Y500888D01*
X482600Y500888D02*
X482600Y515112D01*
X457200Y515112D02*
X457200Y500888D01*
X416560Y500888D02*
X416560Y515112D01*
X391160Y515112D02*
X391160Y500888D01*
X365760Y500888D02*
X365760Y515112D01*
X340360Y515112D02*
X340360Y500888D01*
X314960Y500888D02*
X314960Y515112D01*
X289560Y515112D02*
X289560Y500888D01*
X264160Y500888D02*
X264160Y515112D01*
X238760Y515112D02*
X238760Y500888D01*
X213360Y500888D02*
X213360Y515112D01*
X187960Y515112D02*
X187960Y500888D01*
X508000Y32512D02*
X508000Y18288D01*
X533400Y18288D02*
X533400Y32512D01*
X558800Y32512D02*
X558800Y18288D01*
X584200Y18288D02*
X584200Y32512D01*
X609600Y32512D02*
X609600Y18288D01*
X635000Y18288D02*
X635000Y32512D01*
X279400Y32512D02*
X279400Y18288D01*
X304800Y18288D02*
X304800Y32512D01*
X330200Y32512D02*
X330200Y18288D01*
X355600Y18288D02*
X355600Y32512D01*
X381000Y32512D02*
X381000Y18288D01*
X406400Y18288D02*
X406400Y32512D01*
X431800Y32512D02*
X431800Y18288D01*
X457200Y18288D02*
X457200Y32512D01*
D12*
X495060Y381125D03*
X495060Y362775D03*
X485885Y390300D03*
X485885Y371950D03*
X485885Y353600D03*
X476710Y381125D03*
X476710Y362775D03*
X467535Y390300D03*
X467535Y371950D03*
X467535Y353600D03*
X458360Y381125D03*
X458360Y362775D03*
D13*
X53310Y426410D03*
X53310Y368610D03*
D14*
X133350Y280670D03*
D15*
X168350Y280670D03*
D16*
X70358Y29210D03*
D17*
X100330Y79248D03*
X40386Y79248D03*
D18*
X77978Y29210D03*
X62738Y29210D03*
X40386Y71628D03*
X40386Y86868D03*
X100330Y71628D03*
X100330Y86868D03*
D19*
X181900Y11430D03*
X249900Y11430D03*
D20*
X36830Y293530D03*
X36830Y313530D03*
D21*
X651510Y314480D03*
X651510Y294480D03*
X651510Y274480D03*
X651510Y254480D03*
D22*
X646176Y210566D03*
X646176Y122174D03*
D23*
X283210Y72390D03*
X308610Y72390D03*
X334010Y72390D03*
X359410Y72390D03*
D24*
X341903Y40367D03*
X325120Y439420D03*
M02*
