G04 EAGLE Gerber RS-274X export*
G75*
%MOMM*%
%FSLAX34Y34*%
%LPD*%
%INSolderpaste Top*%
%IPPOS*%
%AMOC8*
5,1,8,0,0,1.08239X$1,22.5*%
G01*
%ADD10C,0.304800*%
%ADD11R,1.100000X1.000000*%
%ADD12R,0.900000X2.000000*%
%ADD13R,2.000000X0.900000*%
%ADD14R,1.330000X1.330000*%
%ADD15R,0.900000X0.950000*%
%ADD16R,0.650000X0.900000*%
%ADD17R,0.900000X1.400000*%
%ADD18R,0.800000X0.900000*%
%ADD19R,0.800000X0.940000*%
%ADD20R,1.526000X0.435000*%
%ADD21R,0.940000X0.800000*%
%ADD22R,1.140000X0.600000*%
%ADD23R,1.140000X0.300000*%
%ADD24R,1.610000X1.820000*%
%ADD25R,2.100000X1.400000*%
%ADD26R,2.900000X5.400000*%
%ADD27R,2.350000X1.550000*%
%ADD28R,1.020000X1.470000*%
%ADD29R,2.000000X4.100000*%
%ADD30R,1.020000X2.160000*%
%ADD31R,8.330000X6.990000*%
%ADD32R,1.235000X1.910000*%
%ADD33R,1.200000X2.500000*%
%ADD34R,0.550000X1.200000*%
%ADD35C,0.100000*%
%ADD36R,1.290000X1.640000*%
%ADD37C,0.150000*%
%ADD38R,0.950000X0.900000*%
%ADD39R,1.400000X0.900000*%
%ADD40R,1.210000X0.730000*%
%ADD41R,1.320800X0.558800*%
%ADD42R,1.320800X0.508000*%
%ADD43R,0.550000X1.050000*%
%ADD44R,1.200000X1.450000*%
%ADD45R,1.000000X0.900000*%
%ADD46C,1.016000*%
%ADD47R,5.080000X2.286000*%
%ADD48R,1.050000X0.550000*%
%ADD49R,0.950000X1.520000*%
%ADD50R,1.820000X1.610000*%

G36*
X200697Y474077D02*
X200697Y474077D01*
X200692Y474084D01*
X200699Y474090D01*
X200699Y478090D01*
X200663Y478137D01*
X200656Y478132D01*
X200650Y478139D01*
X195650Y478139D01*
X195629Y478123D01*
X195615Y478125D01*
X194615Y477125D01*
X194614Y477113D01*
X194607Y477108D01*
X194612Y477101D01*
X194612Y477098D01*
X194601Y477090D01*
X194601Y475090D01*
X194617Y475069D01*
X194615Y475055D01*
X195615Y474055D01*
X195642Y474052D01*
X195650Y474041D01*
X200650Y474041D01*
X200697Y474077D01*
G37*
G36*
X200697Y464077D02*
X200697Y464077D01*
X200692Y464084D01*
X200699Y464090D01*
X200699Y468090D01*
X200663Y468137D01*
X200656Y468132D01*
X200650Y468139D01*
X195650Y468139D01*
X195629Y468123D01*
X195615Y468125D01*
X194615Y467125D01*
X194614Y467113D01*
X194607Y467108D01*
X194612Y467101D01*
X194612Y467098D01*
X194601Y467090D01*
X194601Y465090D01*
X194617Y465069D01*
X194615Y465055D01*
X195615Y464055D01*
X195642Y464052D01*
X195650Y464041D01*
X200650Y464041D01*
X200697Y464077D01*
G37*
G36*
X200697Y454077D02*
X200697Y454077D01*
X200692Y454084D01*
X200699Y454090D01*
X200699Y458090D01*
X200663Y458137D01*
X200656Y458132D01*
X200650Y458139D01*
X195650Y458139D01*
X195629Y458123D01*
X195615Y458125D01*
X194615Y457125D01*
X194614Y457113D01*
X194607Y457108D01*
X194612Y457101D01*
X194612Y457098D01*
X194601Y457090D01*
X194601Y455090D01*
X194617Y455069D01*
X194615Y455055D01*
X195615Y454055D01*
X195642Y454052D01*
X195650Y454041D01*
X200650Y454041D01*
X200697Y454077D01*
G37*
G36*
X172671Y474057D02*
X172671Y474057D01*
X172685Y474055D01*
X173685Y475055D01*
X173689Y475082D01*
X173699Y475090D01*
X173699Y477090D01*
X173683Y477111D01*
X173685Y477125D01*
X172685Y478125D01*
X172661Y478128D01*
X172661Y478129D01*
X172658Y478129D01*
X172650Y478139D01*
X167650Y478139D01*
X167603Y478103D01*
X167608Y478097D01*
X167603Y478093D01*
X167603Y478092D01*
X167601Y478090D01*
X167601Y474090D01*
X167637Y474043D01*
X167644Y474048D01*
X167650Y474041D01*
X172650Y474041D01*
X172671Y474057D01*
G37*
G36*
X172671Y464057D02*
X172671Y464057D01*
X172685Y464055D01*
X173685Y465055D01*
X173689Y465082D01*
X173699Y465090D01*
X173699Y467090D01*
X173683Y467111D01*
X173685Y467125D01*
X172685Y468125D01*
X172661Y468128D01*
X172661Y468129D01*
X172658Y468129D01*
X172650Y468139D01*
X167650Y468139D01*
X167603Y468103D01*
X167608Y468097D01*
X167603Y468093D01*
X167603Y468092D01*
X167601Y468090D01*
X167601Y464090D01*
X167637Y464043D01*
X167644Y464048D01*
X167650Y464041D01*
X172650Y464041D01*
X172671Y464057D01*
G37*
G36*
X172671Y454057D02*
X172671Y454057D01*
X172685Y454055D01*
X173685Y455055D01*
X173689Y455082D01*
X173699Y455090D01*
X173699Y457090D01*
X173683Y457111D01*
X173685Y457125D01*
X172685Y458125D01*
X172661Y458128D01*
X172661Y458129D01*
X172658Y458129D01*
X172650Y458139D01*
X167650Y458139D01*
X167603Y458103D01*
X167608Y458097D01*
X167603Y458093D01*
X167603Y458092D01*
X167601Y458090D01*
X167601Y454090D01*
X167637Y454043D01*
X167644Y454048D01*
X167650Y454041D01*
X172650Y454041D01*
X172671Y454057D01*
G37*
D10*
X176276Y398780D02*
X176278Y398942D01*
X176284Y399104D01*
X176294Y399266D01*
X176308Y399427D01*
X176326Y399588D01*
X176347Y399749D01*
X176373Y399909D01*
X176403Y400068D01*
X176436Y400227D01*
X176474Y400385D01*
X176515Y400541D01*
X176560Y400697D01*
X176609Y400852D01*
X176662Y401005D01*
X176719Y401157D01*
X176779Y401307D01*
X176843Y401456D01*
X176910Y401604D01*
X176981Y401749D01*
X177056Y401893D01*
X177134Y402035D01*
X177216Y402175D01*
X177301Y402313D01*
X177389Y402449D01*
X177481Y402583D01*
X177576Y402714D01*
X177674Y402843D01*
X177775Y402970D01*
X177879Y403094D01*
X177987Y403215D01*
X178097Y403334D01*
X178210Y403450D01*
X178326Y403563D01*
X178445Y403673D01*
X178566Y403781D01*
X178690Y403885D01*
X178817Y403986D01*
X178946Y404084D01*
X179077Y404179D01*
X179211Y404271D01*
X179347Y404359D01*
X179485Y404444D01*
X179625Y404526D01*
X179767Y404604D01*
X179911Y404679D01*
X180056Y404750D01*
X180204Y404817D01*
X180353Y404881D01*
X180503Y404941D01*
X180655Y404998D01*
X180808Y405051D01*
X180963Y405100D01*
X181119Y405145D01*
X181275Y405186D01*
X181433Y405224D01*
X181592Y405257D01*
X181751Y405287D01*
X181911Y405313D01*
X182072Y405334D01*
X182233Y405352D01*
X182394Y405366D01*
X182556Y405376D01*
X182718Y405382D01*
X182880Y405384D01*
X183042Y405382D01*
X183204Y405376D01*
X183366Y405366D01*
X183527Y405352D01*
X183688Y405334D01*
X183849Y405313D01*
X184009Y405287D01*
X184168Y405257D01*
X184327Y405224D01*
X184485Y405186D01*
X184641Y405145D01*
X184797Y405100D01*
X184952Y405051D01*
X185105Y404998D01*
X185257Y404941D01*
X185407Y404881D01*
X185556Y404817D01*
X185704Y404750D01*
X185849Y404679D01*
X185993Y404604D01*
X186135Y404526D01*
X186275Y404444D01*
X186413Y404359D01*
X186549Y404271D01*
X186683Y404179D01*
X186814Y404084D01*
X186943Y403986D01*
X187070Y403885D01*
X187194Y403781D01*
X187315Y403673D01*
X187434Y403563D01*
X187550Y403450D01*
X187663Y403334D01*
X187773Y403215D01*
X187881Y403094D01*
X187985Y402970D01*
X188086Y402843D01*
X188184Y402714D01*
X188279Y402583D01*
X188371Y402449D01*
X188459Y402313D01*
X188544Y402175D01*
X188626Y402035D01*
X188704Y401893D01*
X188779Y401749D01*
X188850Y401604D01*
X188917Y401456D01*
X188981Y401307D01*
X189041Y401157D01*
X189098Y401005D01*
X189151Y400852D01*
X189200Y400697D01*
X189245Y400541D01*
X189286Y400385D01*
X189324Y400227D01*
X189357Y400068D01*
X189387Y399909D01*
X189413Y399749D01*
X189434Y399588D01*
X189452Y399427D01*
X189466Y399266D01*
X189476Y399104D01*
X189482Y398942D01*
X189484Y398780D01*
X189482Y398618D01*
X189476Y398456D01*
X189466Y398294D01*
X189452Y398133D01*
X189434Y397972D01*
X189413Y397811D01*
X189387Y397651D01*
X189357Y397492D01*
X189324Y397333D01*
X189286Y397175D01*
X189245Y397019D01*
X189200Y396863D01*
X189151Y396708D01*
X189098Y396555D01*
X189041Y396403D01*
X188981Y396253D01*
X188917Y396104D01*
X188850Y395956D01*
X188779Y395811D01*
X188704Y395667D01*
X188626Y395525D01*
X188544Y395385D01*
X188459Y395247D01*
X188371Y395111D01*
X188279Y394977D01*
X188184Y394846D01*
X188086Y394717D01*
X187985Y394590D01*
X187881Y394466D01*
X187773Y394345D01*
X187663Y394226D01*
X187550Y394110D01*
X187434Y393997D01*
X187315Y393887D01*
X187194Y393779D01*
X187070Y393675D01*
X186943Y393574D01*
X186814Y393476D01*
X186683Y393381D01*
X186549Y393289D01*
X186413Y393201D01*
X186275Y393116D01*
X186135Y393034D01*
X185993Y392956D01*
X185849Y392881D01*
X185704Y392810D01*
X185556Y392743D01*
X185407Y392679D01*
X185257Y392619D01*
X185105Y392562D01*
X184952Y392509D01*
X184797Y392460D01*
X184641Y392415D01*
X184485Y392374D01*
X184327Y392336D01*
X184168Y392303D01*
X184009Y392273D01*
X183849Y392247D01*
X183688Y392226D01*
X183527Y392208D01*
X183366Y392194D01*
X183204Y392184D01*
X183042Y392178D01*
X182880Y392176D01*
X182718Y392178D01*
X182556Y392184D01*
X182394Y392194D01*
X182233Y392208D01*
X182072Y392226D01*
X181911Y392247D01*
X181751Y392273D01*
X181592Y392303D01*
X181433Y392336D01*
X181275Y392374D01*
X181119Y392415D01*
X180963Y392460D01*
X180808Y392509D01*
X180655Y392562D01*
X180503Y392619D01*
X180353Y392679D01*
X180204Y392743D01*
X180056Y392810D01*
X179911Y392881D01*
X179767Y392956D01*
X179625Y393034D01*
X179485Y393116D01*
X179347Y393201D01*
X179211Y393289D01*
X179077Y393381D01*
X178946Y393476D01*
X178817Y393574D01*
X178690Y393675D01*
X178566Y393779D01*
X178445Y393887D01*
X178326Y393997D01*
X178210Y394110D01*
X178097Y394226D01*
X177987Y394345D01*
X177879Y394466D01*
X177775Y394590D01*
X177674Y394717D01*
X177576Y394846D01*
X177481Y394977D01*
X177389Y395111D01*
X177301Y395247D01*
X177216Y395385D01*
X177134Y395525D01*
X177056Y395667D01*
X176981Y395811D01*
X176910Y395956D01*
X176843Y396104D01*
X176779Y396253D01*
X176719Y396403D01*
X176662Y396555D01*
X176609Y396708D01*
X176560Y396863D01*
X176515Y397019D01*
X176474Y397175D01*
X176436Y397333D01*
X176403Y397492D01*
X176373Y397651D01*
X176347Y397811D01*
X176326Y397972D01*
X176308Y398133D01*
X176294Y398294D01*
X176284Y398456D01*
X176278Y398618D01*
X176276Y398780D01*
X201657Y398780D02*
X201659Y398943D01*
X201665Y399105D01*
X201675Y399267D01*
X201689Y399429D01*
X201707Y399591D01*
X201729Y399752D01*
X201755Y399912D01*
X201784Y400072D01*
X201818Y400231D01*
X201855Y400389D01*
X201897Y400546D01*
X201942Y400703D01*
X201991Y400858D01*
X202044Y401011D01*
X202101Y401164D01*
X202161Y401315D01*
X202225Y401464D01*
X202293Y401612D01*
X202364Y401758D01*
X202439Y401902D01*
X202517Y402044D01*
X202599Y402185D01*
X202685Y402323D01*
X202773Y402460D01*
X202865Y402594D01*
X202960Y402725D01*
X203059Y402855D01*
X203160Y402982D01*
X203265Y403106D01*
X203373Y403228D01*
X203483Y403347D01*
X203597Y403463D01*
X203713Y403577D01*
X203832Y403687D01*
X203954Y403795D01*
X204078Y403900D01*
X204205Y404001D01*
X204335Y404100D01*
X204466Y404195D01*
X204600Y404287D01*
X204737Y404375D01*
X204875Y404461D01*
X205016Y404543D01*
X205158Y404621D01*
X205302Y404696D01*
X205448Y404767D01*
X205596Y404835D01*
X205745Y404899D01*
X205896Y404959D01*
X206049Y405016D01*
X206202Y405069D01*
X206357Y405118D01*
X206514Y405163D01*
X206671Y405205D01*
X206829Y405242D01*
X206988Y405276D01*
X207148Y405305D01*
X207308Y405331D01*
X207469Y405353D01*
X207631Y405371D01*
X207793Y405385D01*
X207955Y405395D01*
X208117Y405401D01*
X208280Y405403D01*
X208443Y405401D01*
X208605Y405395D01*
X208767Y405385D01*
X208929Y405371D01*
X209091Y405353D01*
X209252Y405331D01*
X209412Y405305D01*
X209572Y405276D01*
X209731Y405242D01*
X209889Y405205D01*
X210046Y405163D01*
X210203Y405118D01*
X210358Y405069D01*
X210511Y405016D01*
X210664Y404959D01*
X210815Y404899D01*
X210964Y404835D01*
X211112Y404767D01*
X211258Y404696D01*
X211402Y404621D01*
X211544Y404543D01*
X211685Y404461D01*
X211823Y404375D01*
X211960Y404287D01*
X212094Y404195D01*
X212225Y404100D01*
X212355Y404001D01*
X212482Y403900D01*
X212606Y403795D01*
X212728Y403687D01*
X212847Y403577D01*
X212963Y403463D01*
X213077Y403347D01*
X213187Y403228D01*
X213295Y403106D01*
X213400Y402982D01*
X213501Y402855D01*
X213600Y402725D01*
X213695Y402594D01*
X213787Y402460D01*
X213875Y402323D01*
X213961Y402185D01*
X214043Y402044D01*
X214121Y401902D01*
X214196Y401758D01*
X214267Y401612D01*
X214335Y401464D01*
X214399Y401315D01*
X214459Y401164D01*
X214516Y401011D01*
X214569Y400858D01*
X214618Y400703D01*
X214663Y400546D01*
X214705Y400389D01*
X214742Y400231D01*
X214776Y400072D01*
X214805Y399912D01*
X214831Y399752D01*
X214853Y399591D01*
X214871Y399429D01*
X214885Y399267D01*
X214895Y399105D01*
X214901Y398943D01*
X214903Y398780D01*
X214901Y398617D01*
X214895Y398455D01*
X214885Y398293D01*
X214871Y398131D01*
X214853Y397969D01*
X214831Y397808D01*
X214805Y397648D01*
X214776Y397488D01*
X214742Y397329D01*
X214705Y397171D01*
X214663Y397014D01*
X214618Y396857D01*
X214569Y396702D01*
X214516Y396549D01*
X214459Y396396D01*
X214399Y396245D01*
X214335Y396096D01*
X214267Y395948D01*
X214196Y395802D01*
X214121Y395658D01*
X214043Y395516D01*
X213961Y395375D01*
X213875Y395237D01*
X213787Y395100D01*
X213695Y394966D01*
X213600Y394835D01*
X213501Y394705D01*
X213400Y394578D01*
X213295Y394454D01*
X213187Y394332D01*
X213077Y394213D01*
X212963Y394097D01*
X212847Y393983D01*
X212728Y393873D01*
X212606Y393765D01*
X212482Y393660D01*
X212355Y393559D01*
X212225Y393460D01*
X212094Y393365D01*
X211960Y393273D01*
X211823Y393185D01*
X211685Y393099D01*
X211544Y393017D01*
X211402Y392939D01*
X211258Y392864D01*
X211112Y392793D01*
X210964Y392725D01*
X210815Y392661D01*
X210664Y392601D01*
X210511Y392544D01*
X210358Y392491D01*
X210203Y392442D01*
X210046Y392397D01*
X209889Y392355D01*
X209731Y392318D01*
X209572Y392284D01*
X209412Y392255D01*
X209252Y392229D01*
X209091Y392207D01*
X208929Y392189D01*
X208767Y392175D01*
X208605Y392165D01*
X208443Y392159D01*
X208280Y392157D01*
X208117Y392159D01*
X207955Y392165D01*
X207793Y392175D01*
X207631Y392189D01*
X207469Y392207D01*
X207308Y392229D01*
X207148Y392255D01*
X206988Y392284D01*
X206829Y392318D01*
X206671Y392355D01*
X206514Y392397D01*
X206357Y392442D01*
X206202Y392491D01*
X206049Y392544D01*
X205896Y392601D01*
X205745Y392661D01*
X205596Y392725D01*
X205448Y392793D01*
X205302Y392864D01*
X205158Y392939D01*
X205016Y393017D01*
X204875Y393099D01*
X204737Y393185D01*
X204600Y393273D01*
X204466Y393365D01*
X204335Y393460D01*
X204205Y393559D01*
X204078Y393660D01*
X203954Y393765D01*
X203832Y393873D01*
X203713Y393983D01*
X203597Y394097D01*
X203483Y394213D01*
X203373Y394332D01*
X203265Y394454D01*
X203160Y394578D01*
X203059Y394705D01*
X202960Y394835D01*
X202865Y394966D01*
X202773Y395100D01*
X202685Y395237D01*
X202599Y395375D01*
X202517Y395516D01*
X202439Y395658D01*
X202364Y395802D01*
X202293Y395948D01*
X202225Y396096D01*
X202161Y396245D01*
X202101Y396396D01*
X202044Y396549D01*
X201991Y396702D01*
X201942Y396857D01*
X201897Y397014D01*
X201855Y397171D01*
X201818Y397329D01*
X201784Y397488D01*
X201755Y397648D01*
X201729Y397808D01*
X201707Y397969D01*
X201689Y398131D01*
X201675Y398293D01*
X201665Y398455D01*
X201659Y398617D01*
X201657Y398780D01*
X176276Y424180D02*
X176278Y424342D01*
X176284Y424504D01*
X176294Y424666D01*
X176308Y424827D01*
X176326Y424988D01*
X176347Y425149D01*
X176373Y425309D01*
X176403Y425468D01*
X176436Y425627D01*
X176474Y425785D01*
X176515Y425941D01*
X176560Y426097D01*
X176609Y426252D01*
X176662Y426405D01*
X176719Y426557D01*
X176779Y426707D01*
X176843Y426856D01*
X176910Y427004D01*
X176981Y427149D01*
X177056Y427293D01*
X177134Y427435D01*
X177216Y427575D01*
X177301Y427713D01*
X177389Y427849D01*
X177481Y427983D01*
X177576Y428114D01*
X177674Y428243D01*
X177775Y428370D01*
X177879Y428494D01*
X177987Y428615D01*
X178097Y428734D01*
X178210Y428850D01*
X178326Y428963D01*
X178445Y429073D01*
X178566Y429181D01*
X178690Y429285D01*
X178817Y429386D01*
X178946Y429484D01*
X179077Y429579D01*
X179211Y429671D01*
X179347Y429759D01*
X179485Y429844D01*
X179625Y429926D01*
X179767Y430004D01*
X179911Y430079D01*
X180056Y430150D01*
X180204Y430217D01*
X180353Y430281D01*
X180503Y430341D01*
X180655Y430398D01*
X180808Y430451D01*
X180963Y430500D01*
X181119Y430545D01*
X181275Y430586D01*
X181433Y430624D01*
X181592Y430657D01*
X181751Y430687D01*
X181911Y430713D01*
X182072Y430734D01*
X182233Y430752D01*
X182394Y430766D01*
X182556Y430776D01*
X182718Y430782D01*
X182880Y430784D01*
X183042Y430782D01*
X183204Y430776D01*
X183366Y430766D01*
X183527Y430752D01*
X183688Y430734D01*
X183849Y430713D01*
X184009Y430687D01*
X184168Y430657D01*
X184327Y430624D01*
X184485Y430586D01*
X184641Y430545D01*
X184797Y430500D01*
X184952Y430451D01*
X185105Y430398D01*
X185257Y430341D01*
X185407Y430281D01*
X185556Y430217D01*
X185704Y430150D01*
X185849Y430079D01*
X185993Y430004D01*
X186135Y429926D01*
X186275Y429844D01*
X186413Y429759D01*
X186549Y429671D01*
X186683Y429579D01*
X186814Y429484D01*
X186943Y429386D01*
X187070Y429285D01*
X187194Y429181D01*
X187315Y429073D01*
X187434Y428963D01*
X187550Y428850D01*
X187663Y428734D01*
X187773Y428615D01*
X187881Y428494D01*
X187985Y428370D01*
X188086Y428243D01*
X188184Y428114D01*
X188279Y427983D01*
X188371Y427849D01*
X188459Y427713D01*
X188544Y427575D01*
X188626Y427435D01*
X188704Y427293D01*
X188779Y427149D01*
X188850Y427004D01*
X188917Y426856D01*
X188981Y426707D01*
X189041Y426557D01*
X189098Y426405D01*
X189151Y426252D01*
X189200Y426097D01*
X189245Y425941D01*
X189286Y425785D01*
X189324Y425627D01*
X189357Y425468D01*
X189387Y425309D01*
X189413Y425149D01*
X189434Y424988D01*
X189452Y424827D01*
X189466Y424666D01*
X189476Y424504D01*
X189482Y424342D01*
X189484Y424180D01*
X189482Y424018D01*
X189476Y423856D01*
X189466Y423694D01*
X189452Y423533D01*
X189434Y423372D01*
X189413Y423211D01*
X189387Y423051D01*
X189357Y422892D01*
X189324Y422733D01*
X189286Y422575D01*
X189245Y422419D01*
X189200Y422263D01*
X189151Y422108D01*
X189098Y421955D01*
X189041Y421803D01*
X188981Y421653D01*
X188917Y421504D01*
X188850Y421356D01*
X188779Y421211D01*
X188704Y421067D01*
X188626Y420925D01*
X188544Y420785D01*
X188459Y420647D01*
X188371Y420511D01*
X188279Y420377D01*
X188184Y420246D01*
X188086Y420117D01*
X187985Y419990D01*
X187881Y419866D01*
X187773Y419745D01*
X187663Y419626D01*
X187550Y419510D01*
X187434Y419397D01*
X187315Y419287D01*
X187194Y419179D01*
X187070Y419075D01*
X186943Y418974D01*
X186814Y418876D01*
X186683Y418781D01*
X186549Y418689D01*
X186413Y418601D01*
X186275Y418516D01*
X186135Y418434D01*
X185993Y418356D01*
X185849Y418281D01*
X185704Y418210D01*
X185556Y418143D01*
X185407Y418079D01*
X185257Y418019D01*
X185105Y417962D01*
X184952Y417909D01*
X184797Y417860D01*
X184641Y417815D01*
X184485Y417774D01*
X184327Y417736D01*
X184168Y417703D01*
X184009Y417673D01*
X183849Y417647D01*
X183688Y417626D01*
X183527Y417608D01*
X183366Y417594D01*
X183204Y417584D01*
X183042Y417578D01*
X182880Y417576D01*
X182718Y417578D01*
X182556Y417584D01*
X182394Y417594D01*
X182233Y417608D01*
X182072Y417626D01*
X181911Y417647D01*
X181751Y417673D01*
X181592Y417703D01*
X181433Y417736D01*
X181275Y417774D01*
X181119Y417815D01*
X180963Y417860D01*
X180808Y417909D01*
X180655Y417962D01*
X180503Y418019D01*
X180353Y418079D01*
X180204Y418143D01*
X180056Y418210D01*
X179911Y418281D01*
X179767Y418356D01*
X179625Y418434D01*
X179485Y418516D01*
X179347Y418601D01*
X179211Y418689D01*
X179077Y418781D01*
X178946Y418876D01*
X178817Y418974D01*
X178690Y419075D01*
X178566Y419179D01*
X178445Y419287D01*
X178326Y419397D01*
X178210Y419510D01*
X178097Y419626D01*
X177987Y419745D01*
X177879Y419866D01*
X177775Y419990D01*
X177674Y420117D01*
X177576Y420246D01*
X177481Y420377D01*
X177389Y420511D01*
X177301Y420647D01*
X177216Y420785D01*
X177134Y420925D01*
X177056Y421067D01*
X176981Y421211D01*
X176910Y421356D01*
X176843Y421504D01*
X176779Y421653D01*
X176719Y421803D01*
X176662Y421955D01*
X176609Y422108D01*
X176560Y422263D01*
X176515Y422419D01*
X176474Y422575D01*
X176436Y422733D01*
X176403Y422892D01*
X176373Y423051D01*
X176347Y423211D01*
X176326Y423372D01*
X176308Y423533D01*
X176294Y423694D01*
X176284Y423856D01*
X176278Y424018D01*
X176276Y424180D01*
X201657Y424180D02*
X201659Y424343D01*
X201665Y424505D01*
X201675Y424667D01*
X201689Y424829D01*
X201707Y424991D01*
X201729Y425152D01*
X201755Y425312D01*
X201784Y425472D01*
X201818Y425631D01*
X201855Y425789D01*
X201897Y425946D01*
X201942Y426103D01*
X201991Y426258D01*
X202044Y426411D01*
X202101Y426564D01*
X202161Y426715D01*
X202225Y426864D01*
X202293Y427012D01*
X202364Y427158D01*
X202439Y427302D01*
X202517Y427444D01*
X202599Y427585D01*
X202685Y427723D01*
X202773Y427860D01*
X202865Y427994D01*
X202960Y428125D01*
X203059Y428255D01*
X203160Y428382D01*
X203265Y428506D01*
X203373Y428628D01*
X203483Y428747D01*
X203597Y428863D01*
X203713Y428977D01*
X203832Y429087D01*
X203954Y429195D01*
X204078Y429300D01*
X204205Y429401D01*
X204335Y429500D01*
X204466Y429595D01*
X204600Y429687D01*
X204737Y429775D01*
X204875Y429861D01*
X205016Y429943D01*
X205158Y430021D01*
X205302Y430096D01*
X205448Y430167D01*
X205596Y430235D01*
X205745Y430299D01*
X205896Y430359D01*
X206049Y430416D01*
X206202Y430469D01*
X206357Y430518D01*
X206514Y430563D01*
X206671Y430605D01*
X206829Y430642D01*
X206988Y430676D01*
X207148Y430705D01*
X207308Y430731D01*
X207469Y430753D01*
X207631Y430771D01*
X207793Y430785D01*
X207955Y430795D01*
X208117Y430801D01*
X208280Y430803D01*
X208443Y430801D01*
X208605Y430795D01*
X208767Y430785D01*
X208929Y430771D01*
X209091Y430753D01*
X209252Y430731D01*
X209412Y430705D01*
X209572Y430676D01*
X209731Y430642D01*
X209889Y430605D01*
X210046Y430563D01*
X210203Y430518D01*
X210358Y430469D01*
X210511Y430416D01*
X210664Y430359D01*
X210815Y430299D01*
X210964Y430235D01*
X211112Y430167D01*
X211258Y430096D01*
X211402Y430021D01*
X211544Y429943D01*
X211685Y429861D01*
X211823Y429775D01*
X211960Y429687D01*
X212094Y429595D01*
X212225Y429500D01*
X212355Y429401D01*
X212482Y429300D01*
X212606Y429195D01*
X212728Y429087D01*
X212847Y428977D01*
X212963Y428863D01*
X213077Y428747D01*
X213187Y428628D01*
X213295Y428506D01*
X213400Y428382D01*
X213501Y428255D01*
X213600Y428125D01*
X213695Y427994D01*
X213787Y427860D01*
X213875Y427723D01*
X213961Y427585D01*
X214043Y427444D01*
X214121Y427302D01*
X214196Y427158D01*
X214267Y427012D01*
X214335Y426864D01*
X214399Y426715D01*
X214459Y426564D01*
X214516Y426411D01*
X214569Y426258D01*
X214618Y426103D01*
X214663Y425946D01*
X214705Y425789D01*
X214742Y425631D01*
X214776Y425472D01*
X214805Y425312D01*
X214831Y425152D01*
X214853Y424991D01*
X214871Y424829D01*
X214885Y424667D01*
X214895Y424505D01*
X214901Y424343D01*
X214903Y424180D01*
X214901Y424017D01*
X214895Y423855D01*
X214885Y423693D01*
X214871Y423531D01*
X214853Y423369D01*
X214831Y423208D01*
X214805Y423048D01*
X214776Y422888D01*
X214742Y422729D01*
X214705Y422571D01*
X214663Y422414D01*
X214618Y422257D01*
X214569Y422102D01*
X214516Y421949D01*
X214459Y421796D01*
X214399Y421645D01*
X214335Y421496D01*
X214267Y421348D01*
X214196Y421202D01*
X214121Y421058D01*
X214043Y420916D01*
X213961Y420775D01*
X213875Y420637D01*
X213787Y420500D01*
X213695Y420366D01*
X213600Y420235D01*
X213501Y420105D01*
X213400Y419978D01*
X213295Y419854D01*
X213187Y419732D01*
X213077Y419613D01*
X212963Y419497D01*
X212847Y419383D01*
X212728Y419273D01*
X212606Y419165D01*
X212482Y419060D01*
X212355Y418959D01*
X212225Y418860D01*
X212094Y418765D01*
X211960Y418673D01*
X211823Y418585D01*
X211685Y418499D01*
X211544Y418417D01*
X211402Y418339D01*
X211258Y418264D01*
X211112Y418193D01*
X210964Y418125D01*
X210815Y418061D01*
X210664Y418001D01*
X210511Y417944D01*
X210358Y417891D01*
X210203Y417842D01*
X210046Y417797D01*
X209889Y417755D01*
X209731Y417718D01*
X209572Y417684D01*
X209412Y417655D01*
X209252Y417629D01*
X209091Y417607D01*
X208929Y417589D01*
X208767Y417575D01*
X208605Y417565D01*
X208443Y417559D01*
X208280Y417557D01*
X208117Y417559D01*
X207955Y417565D01*
X207793Y417575D01*
X207631Y417589D01*
X207469Y417607D01*
X207308Y417629D01*
X207148Y417655D01*
X206988Y417684D01*
X206829Y417718D01*
X206671Y417755D01*
X206514Y417797D01*
X206357Y417842D01*
X206202Y417891D01*
X206049Y417944D01*
X205896Y418001D01*
X205745Y418061D01*
X205596Y418125D01*
X205448Y418193D01*
X205302Y418264D01*
X205158Y418339D01*
X205016Y418417D01*
X204875Y418499D01*
X204737Y418585D01*
X204600Y418673D01*
X204466Y418765D01*
X204335Y418860D01*
X204205Y418959D01*
X204078Y419060D01*
X203954Y419165D01*
X203832Y419273D01*
X203713Y419383D01*
X203597Y419497D01*
X203483Y419613D01*
X203373Y419732D01*
X203265Y419854D01*
X203160Y419978D01*
X203059Y420105D01*
X202960Y420235D01*
X202865Y420366D01*
X202773Y420500D01*
X202685Y420637D01*
X202599Y420775D01*
X202517Y420916D01*
X202439Y421058D01*
X202364Y421202D01*
X202293Y421348D01*
X202225Y421496D01*
X202161Y421645D01*
X202101Y421796D01*
X202044Y421949D01*
X201991Y422102D01*
X201942Y422257D01*
X201897Y422414D01*
X201855Y422571D01*
X201818Y422729D01*
X201784Y422888D01*
X201755Y423048D01*
X201729Y423208D01*
X201707Y423369D01*
X201689Y423531D01*
X201675Y423693D01*
X201665Y423855D01*
X201659Y424017D01*
X201657Y424180D01*
D11*
X519040Y467360D03*
X502040Y467360D03*
D12*
X551710Y446950D03*
X539010Y446950D03*
X526310Y446950D03*
X513610Y446950D03*
X500910Y446950D03*
X488210Y446950D03*
X475510Y446950D03*
X462810Y446950D03*
X450110Y446950D03*
X437410Y446950D03*
X424710Y446950D03*
X412010Y446950D03*
X399310Y446950D03*
X386610Y446950D03*
D13*
X376610Y419100D03*
X376610Y406400D03*
X376610Y393700D03*
X376610Y381000D03*
X376610Y368300D03*
X376610Y355600D03*
X376610Y342900D03*
X376610Y330200D03*
X376610Y317500D03*
X376610Y304800D03*
D12*
X386610Y276950D03*
X399310Y276950D03*
X412010Y276950D03*
X424710Y276950D03*
X437410Y276950D03*
X450110Y276950D03*
X462810Y276950D03*
X475510Y276950D03*
X488210Y276950D03*
X500910Y276950D03*
X513610Y276950D03*
X526310Y276950D03*
X539010Y276950D03*
X551710Y276950D03*
D14*
X495060Y390300D03*
X495060Y371950D03*
X495060Y353600D03*
X476710Y390300D03*
X476710Y371950D03*
X476710Y353600D03*
X458360Y390300D03*
X458360Y371950D03*
X458360Y353600D03*
D15*
X237110Y261620D03*
X253110Y261620D03*
X602360Y467360D03*
X586360Y467360D03*
X298830Y260350D03*
X282830Y260350D03*
D16*
X233310Y369570D03*
X218810Y369570D03*
D17*
X189890Y368300D03*
X208890Y368300D03*
D18*
X235610Y275750D03*
X254610Y275750D03*
X245110Y295750D03*
X280060Y275750D03*
X299060Y275750D03*
X289560Y295750D03*
D19*
X573120Y467360D03*
X559720Y467360D03*
X547720Y467360D03*
X534320Y467360D03*
D20*
X161740Y365120D03*
X161740Y371480D03*
X161740Y377820D03*
X161740Y384180D03*
X161740Y390520D03*
X161740Y396880D03*
X161740Y403220D03*
X161740Y409580D03*
X161740Y415920D03*
X161740Y422280D03*
X107500Y422280D03*
X107500Y415920D03*
X107500Y409580D03*
X107500Y403220D03*
X107500Y396880D03*
X107500Y390520D03*
X107500Y384180D03*
X107500Y377820D03*
X107500Y371480D03*
X107500Y365120D03*
D16*
X233310Y411480D03*
X218810Y411480D03*
X233310Y387350D03*
X218810Y387350D03*
D17*
X189890Y412750D03*
X208890Y412750D03*
X189890Y389890D03*
X208890Y389890D03*
D21*
X83820Y361030D03*
X83820Y347630D03*
X139700Y461360D03*
X139700Y447960D03*
X81280Y413670D03*
X81280Y427070D03*
D22*
X64010Y429510D03*
X64010Y421510D03*
D23*
X64010Y400010D03*
X64010Y405010D03*
X64010Y410010D03*
X64010Y415010D03*
X64010Y395010D03*
X64010Y390010D03*
X64010Y385010D03*
X64010Y380010D03*
D22*
X64010Y373510D03*
X64010Y365510D03*
D24*
X96220Y448310D03*
X122220Y448310D03*
D21*
X152400Y447960D03*
X152400Y461360D03*
D25*
X19270Y517800D03*
X110270Y517800D03*
X19270Y472800D03*
X110270Y472800D03*
D26*
X241330Y187960D03*
X340330Y187960D03*
D27*
X372200Y172720D03*
X415200Y172720D03*
D28*
X154460Y54610D03*
X170660Y54610D03*
D29*
X55880Y159700D03*
X55880Y246700D03*
D30*
X133640Y81130D03*
X150640Y81130D03*
X167640Y81130D03*
X184640Y81130D03*
X201640Y81130D03*
D31*
X167640Y187880D03*
D32*
X215465Y213280D03*
X119815Y213280D03*
D33*
X190900Y38930D03*
X215900Y38930D03*
X240900Y38930D03*
D34*
X334670Y366730D03*
X344170Y366730D03*
X353670Y366730D03*
X353670Y392730D03*
X334670Y392730D03*
X344170Y392730D03*
D35*
X256630Y333370D02*
X242030Y333370D01*
X242030Y336370D01*
X256630Y336370D01*
X256630Y333370D01*
X256630Y334320D02*
X242030Y334320D01*
X242030Y335270D02*
X256630Y335270D01*
X256630Y336220D02*
X242030Y336220D01*
X242030Y326870D02*
X256630Y326870D01*
X242030Y326870D02*
X242030Y329870D01*
X256630Y329870D01*
X256630Y326870D01*
X256630Y327820D02*
X242030Y327820D01*
X242030Y328770D02*
X256630Y328770D01*
X256630Y329720D02*
X242030Y329720D01*
X242030Y320370D02*
X256630Y320370D01*
X242030Y320370D02*
X242030Y323370D01*
X256630Y323370D01*
X256630Y320370D01*
X256630Y321320D02*
X242030Y321320D01*
X242030Y322270D02*
X256630Y322270D01*
X256630Y323220D02*
X242030Y323220D01*
X242030Y313870D02*
X256630Y313870D01*
X242030Y313870D02*
X242030Y316870D01*
X256630Y316870D01*
X256630Y313870D01*
X256630Y314820D02*
X242030Y314820D01*
X242030Y315770D02*
X256630Y315770D01*
X256630Y316720D02*
X242030Y316720D01*
X299630Y313870D02*
X314230Y313870D01*
X299630Y313870D02*
X299630Y316870D01*
X314230Y316870D01*
X314230Y313870D01*
X314230Y314820D02*
X299630Y314820D01*
X299630Y315770D02*
X314230Y315770D01*
X314230Y316720D02*
X299630Y316720D01*
X299630Y320370D02*
X314230Y320370D01*
X299630Y320370D02*
X299630Y323370D01*
X314230Y323370D01*
X314230Y320370D01*
X314230Y321320D02*
X299630Y321320D01*
X299630Y322270D02*
X314230Y322270D01*
X314230Y323220D02*
X299630Y323220D01*
X299630Y326870D02*
X314230Y326870D01*
X299630Y326870D02*
X299630Y329870D01*
X314230Y329870D01*
X314230Y326870D01*
X314230Y327820D02*
X299630Y327820D01*
X299630Y328770D02*
X314230Y328770D01*
X314230Y329720D02*
X299630Y329720D01*
X299630Y333370D02*
X314230Y333370D01*
X299630Y333370D02*
X299630Y336370D01*
X314230Y336370D01*
X314230Y333370D01*
X314230Y334320D02*
X299630Y334320D01*
X299630Y335270D02*
X314230Y335270D01*
X314230Y336220D02*
X299630Y336220D01*
D36*
X285750Y373380D03*
D37*
X270100Y390180D02*
X251900Y390180D01*
X251900Y394680D01*
X270100Y394680D01*
X270100Y390180D01*
X270100Y391605D02*
X251900Y391605D01*
X251900Y393030D02*
X270100Y393030D01*
X270100Y394455D02*
X251900Y394455D01*
X251900Y377480D02*
X270100Y377480D01*
X251900Y377480D02*
X251900Y381980D01*
X270100Y381980D01*
X270100Y377480D01*
X270100Y378905D02*
X251900Y378905D01*
X251900Y380330D02*
X270100Y380330D01*
X270100Y381755D02*
X251900Y381755D01*
X251900Y364780D02*
X270100Y364780D01*
X251900Y364780D02*
X251900Y369280D01*
X270100Y369280D01*
X270100Y364780D01*
X270100Y366205D02*
X251900Y366205D01*
X251900Y367630D02*
X270100Y367630D01*
X270100Y369055D02*
X251900Y369055D01*
X251900Y352080D02*
X270100Y352080D01*
X251900Y352080D02*
X251900Y356580D01*
X270100Y356580D01*
X270100Y352080D01*
X270100Y353505D02*
X251900Y353505D01*
X251900Y354930D02*
X270100Y354930D01*
X270100Y356355D02*
X251900Y356355D01*
X301400Y352080D02*
X319600Y352080D01*
X301400Y352080D02*
X301400Y356580D01*
X319600Y356580D01*
X319600Y352080D01*
X319600Y353505D02*
X301400Y353505D01*
X301400Y354930D02*
X319600Y354930D01*
X319600Y356355D02*
X301400Y356355D01*
X301400Y364780D02*
X319600Y364780D01*
X301400Y364780D02*
X301400Y369280D01*
X319600Y369280D01*
X319600Y364780D01*
X319600Y366205D02*
X301400Y366205D01*
X301400Y367630D02*
X319600Y367630D01*
X319600Y369055D02*
X301400Y369055D01*
X301400Y377480D02*
X319600Y377480D01*
X301400Y377480D02*
X301400Y381980D01*
X319600Y381980D01*
X319600Y377480D01*
X319600Y378905D02*
X301400Y378905D01*
X301400Y380330D02*
X319600Y380330D01*
X319600Y381755D02*
X301400Y381755D01*
X301400Y390180D02*
X319600Y390180D01*
X301400Y390180D02*
X301400Y394680D01*
X319600Y394680D01*
X319600Y390180D01*
X319600Y391605D02*
X301400Y391605D01*
X301400Y393030D02*
X319600Y393030D01*
X319600Y394455D02*
X301400Y394455D01*
D38*
X252730Y417450D03*
X252730Y433450D03*
D39*
X292100Y417220D03*
X292100Y436220D03*
X269240Y417220D03*
X269240Y436220D03*
D38*
X306070Y417450D03*
X306070Y433450D03*
D15*
X234060Y427990D03*
X218060Y427990D03*
D40*
X222540Y342900D03*
X188940Y342900D03*
D41*
X325628Y295148D03*
X325628Y276352D03*
D42*
X347472Y285750D03*
D21*
X369570Y258160D03*
X369570Y244760D03*
X381000Y258160D03*
X381000Y244760D03*
D19*
X212440Y314960D03*
X199040Y314960D03*
D38*
X340360Y410084D03*
X340360Y426084D03*
D21*
X353060Y424530D03*
X353060Y411130D03*
D38*
X340360Y336170D03*
X340360Y352170D03*
D21*
X327660Y413670D03*
X327660Y427070D03*
D43*
X396900Y197820D03*
X406400Y197820D03*
X415900Y197820D03*
X415900Y223820D03*
X396900Y223820D03*
D19*
X367950Y203200D03*
X381350Y203200D03*
D44*
X412360Y238760D03*
X395360Y238760D03*
D38*
X381000Y216790D03*
X381000Y232790D03*
D45*
X368300Y218060D03*
X368300Y234060D03*
D46*
X444320Y92790D02*
X444320Y62310D01*
X444320Y222310D02*
X444320Y252790D01*
X464320Y92790D02*
X464320Y62310D01*
X484320Y62310D02*
X484320Y92790D01*
X504320Y92790D02*
X504320Y62310D01*
X524320Y62310D02*
X524320Y92790D01*
X544320Y92790D02*
X544320Y62310D01*
X564320Y62310D02*
X564320Y92790D01*
X584320Y92790D02*
X584320Y62310D01*
X464320Y222310D02*
X464320Y252790D01*
X484320Y252790D02*
X484320Y222310D01*
X504320Y222310D02*
X504320Y252790D01*
X524320Y252790D02*
X524320Y222310D01*
X544320Y222310D02*
X544320Y252790D01*
X564320Y252790D02*
X564320Y222310D01*
X584320Y222310D02*
X584320Y252790D01*
D47*
X646176Y166370D03*
X646176Y122174D03*
X646176Y210566D03*
D21*
X398780Y83470D03*
X398780Y96870D03*
D15*
X284100Y113030D03*
X300100Y113030D03*
X284100Y99060D03*
X300100Y99060D03*
D21*
X410210Y83470D03*
X410210Y96870D03*
X422910Y83470D03*
X422910Y96870D03*
D48*
X383240Y149200D03*
X383240Y139700D03*
X383240Y130200D03*
X409240Y130200D03*
X409240Y149200D03*
D21*
X368300Y107030D03*
X368300Y93630D03*
D44*
X385200Y114300D03*
X402200Y114300D03*
D38*
X422910Y135510D03*
X422910Y151510D03*
D45*
X422910Y123570D03*
X422910Y107570D03*
D49*
X184150Y466090D03*
D15*
X162180Y431800D03*
X178180Y431800D03*
D50*
G36*
X84418Y152113D02*
X97286Y139245D01*
X85902Y127861D01*
X73034Y140729D01*
X84418Y152113D01*
G37*
G36*
X102802Y170498D02*
X115670Y157630D01*
X104286Y146246D01*
X91418Y159114D01*
X102802Y170498D01*
G37*
M02*
