G04 EAGLE Gerber RS-274X export*
G75*
%MOMM*%
%FSLAX34Y34*%
%LPD*%
%INSoldermask Top*%
%IPPOS*%
%AMOC8*
5,1,8,0,0,1.08239X$1,22.5*%
G01*
%ADD10C,3.403200*%
%ADD11C,1.625600*%
%ADD12R,1.303200X1.203200*%
%ADD13R,1.103200X2.203200*%
%ADD14R,2.203200X1.103200*%
%ADD15R,1.533200X1.533200*%
%ADD16C,0.911200*%
%ADD17R,1.103200X1.153200*%
%ADD18R,0.853200X1.103200*%
%ADD19R,1.103200X1.603200*%
%ADD20R,1.003200X1.103200*%
%ADD21R,1.003200X1.143200*%
%ADD22R,1.729200X0.638200*%
%ADD23R,1.143200X1.003200*%
%ADD24R,1.240000X0.400000*%
%ADD25R,1.240000X0.700000*%
%ADD26C,0.803200*%
%ADD27R,1.813200X2.023200*%
%ADD28R,2.303200X1.603200*%
%ADD29R,3.103200X5.603200*%
%ADD30R,1.511200X1.511200*%
%ADD31C,1.511200*%
%ADD32R,2.553200X1.753200*%
%ADD33R,1.223200X1.673200*%
%ADD34R,2.203200X4.303200*%
%ADD35R,1.223200X2.363200*%
%ADD36R,8.533200X7.193200*%
%ADD37R,1.438200X2.113200*%
%ADD38P,4.549502X8X202.500000*%
%ADD39P,4.549502X8X112.500000*%
%ADD40C,2.153200*%
%ADD41R,1.403200X2.703200*%
%ADD42C,1.203200*%
%ADD43R,0.753200X1.403200*%
%ADD44C,0.301600*%
%ADD45C,0.353406*%
%ADD46R,2.616200X3.505200*%
%ADD47R,1.153200X1.103200*%
%ADD48R,1.603200X1.103200*%
%ADD49R,1.413200X0.933200*%
%ADD50R,1.524000X0.762000*%
%ADD51R,1.524000X0.711200*%
%ADD52P,2.034460X8X112.500000*%
%ADD53P,2.034460X8X292.500000*%
%ADD54R,0.753200X1.253200*%
%ADD55R,1.403200X1.653200*%
%ADD56R,1.203200X1.103200*%
%ADD57R,0.933200X1.413200*%
%ADD58C,1.219200*%
%ADD59R,5.283200X2.489200*%
%ADD60C,1.879600*%
%ADD61R,1.253200X0.753200*%
%ADD62R,2.023200X1.813200*%
%ADD63C,1.219200*%

G36*
X189385Y453057D02*
X189385Y453057D01*
X189399Y453055D01*
X192685Y456341D01*
X192689Y456368D01*
X192699Y456376D01*
X192699Y479090D01*
X192663Y479137D01*
X192656Y479132D01*
X192650Y479139D01*
X175650Y479139D01*
X175603Y479103D01*
X175608Y479096D01*
X175601Y479090D01*
X175601Y453090D01*
X175637Y453043D01*
X175644Y453048D01*
X175650Y453041D01*
X189364Y453041D01*
X189385Y453057D01*
G37*
G36*
X63713Y349213D02*
X63713Y349213D01*
X63716Y349211D01*
X64828Y349336D01*
X64834Y349342D01*
X64839Y349339D01*
X65896Y349709D01*
X65900Y349716D01*
X65906Y349713D01*
X66854Y350309D01*
X66857Y350317D01*
X66862Y350316D01*
X67654Y351108D01*
X67655Y351116D01*
X67661Y351116D01*
X68257Y352064D01*
X68256Y352073D01*
X68261Y352074D01*
X68631Y353131D01*
X68630Y353135D01*
X68632Y353137D01*
X68630Y353140D01*
X68634Y353142D01*
X68759Y354255D01*
X68755Y354261D01*
X68759Y354265D01*
X68646Y355368D01*
X68640Y355374D01*
X68644Y355379D01*
X68288Y356428D01*
X68281Y356433D01*
X68283Y356438D01*
X67703Y357383D01*
X67696Y357386D01*
X67696Y357392D01*
X66921Y358183D01*
X66912Y358185D01*
X66912Y358190D01*
X65979Y358790D01*
X65971Y358789D01*
X65970Y358794D01*
X64927Y359171D01*
X64919Y359169D01*
X64916Y359174D01*
X63816Y359309D01*
X63813Y359307D01*
X63812Y359307D01*
X63810Y359309D01*
X52810Y359309D01*
X52807Y359307D01*
X52805Y359309D01*
X51680Y359194D01*
X51674Y359188D01*
X51669Y359191D01*
X50598Y358828D01*
X50594Y358821D01*
X50588Y358824D01*
X49625Y358231D01*
X49622Y358224D01*
X49616Y358225D01*
X48808Y357433D01*
X48807Y357425D01*
X48802Y357424D01*
X48190Y356473D01*
X48191Y356467D01*
X48187Y356464D01*
X48187Y356463D01*
X48186Y356463D01*
X47801Y355399D01*
X47804Y355391D01*
X47799Y355388D01*
X47661Y354266D01*
X47665Y354259D01*
X47661Y354255D01*
X47786Y353142D01*
X47792Y353136D01*
X47789Y353131D01*
X48159Y352074D01*
X48166Y352070D01*
X48163Y352064D01*
X48759Y351116D01*
X48767Y351113D01*
X48766Y351108D01*
X49558Y350316D01*
X49566Y350315D01*
X49566Y350309D01*
X50514Y349713D01*
X50523Y349714D01*
X50524Y349709D01*
X51581Y349339D01*
X51589Y349341D01*
X51592Y349336D01*
X52705Y349211D01*
X52708Y349213D01*
X52710Y349211D01*
X63710Y349211D01*
X63713Y349213D01*
G37*
G36*
X63713Y435713D02*
X63713Y435713D01*
X63716Y435711D01*
X64828Y435836D01*
X64834Y435842D01*
X64839Y435839D01*
X65896Y436209D01*
X65900Y436216D01*
X65906Y436213D01*
X66854Y436809D01*
X66857Y436817D01*
X66862Y436816D01*
X67654Y437608D01*
X67655Y437616D01*
X67661Y437616D01*
X68257Y438564D01*
X68256Y438573D01*
X68261Y438574D01*
X68631Y439631D01*
X68630Y439635D01*
X68632Y439637D01*
X68630Y439640D01*
X68634Y439642D01*
X68759Y440755D01*
X68755Y440762D01*
X68759Y440766D01*
X68634Y441878D01*
X68628Y441884D01*
X68631Y441889D01*
X68261Y442946D01*
X68255Y442950D01*
X68257Y442956D01*
X67661Y443904D01*
X67653Y443907D01*
X67654Y443912D01*
X66862Y444704D01*
X66854Y444705D01*
X66854Y444711D01*
X65906Y445307D01*
X65897Y445306D01*
X65896Y445311D01*
X64839Y445681D01*
X64831Y445679D01*
X64828Y445684D01*
X63716Y445809D01*
X63712Y445807D01*
X63710Y445809D01*
X52710Y445809D01*
X52707Y445807D01*
X52706Y445807D01*
X52705Y445809D01*
X51592Y445684D01*
X51586Y445678D01*
X51581Y445681D01*
X50524Y445311D01*
X50520Y445305D01*
X50514Y445307D01*
X49566Y444711D01*
X49563Y444703D01*
X49558Y444704D01*
X48766Y443912D01*
X48765Y443904D01*
X48759Y443904D01*
X48163Y442956D01*
X48164Y442947D01*
X48159Y442946D01*
X47789Y441889D01*
X47791Y441883D01*
X47787Y441880D01*
X47788Y441879D01*
X47786Y441878D01*
X47661Y440766D01*
X47665Y440758D01*
X47661Y440755D01*
X47786Y439642D01*
X47792Y439636D01*
X47789Y439631D01*
X48159Y438574D01*
X48166Y438570D01*
X48163Y438564D01*
X48759Y437616D01*
X48767Y437613D01*
X48766Y437608D01*
X49558Y436816D01*
X49566Y436815D01*
X49566Y436809D01*
X50514Y436213D01*
X50523Y436214D01*
X50524Y436209D01*
X51581Y435839D01*
X51589Y435841D01*
X51592Y435836D01*
X52705Y435711D01*
X52708Y435713D01*
X52710Y435711D01*
X63710Y435711D01*
X63713Y435713D01*
G37*
G36*
X20513Y435713D02*
X20513Y435713D01*
X20516Y435711D01*
X21628Y435836D01*
X21634Y435842D01*
X21639Y435839D01*
X22696Y436209D01*
X22700Y436216D01*
X22706Y436213D01*
X23654Y436809D01*
X23657Y436817D01*
X23662Y436816D01*
X24454Y437608D01*
X24455Y437616D01*
X24461Y437616D01*
X25057Y438564D01*
X25056Y438573D01*
X25061Y438574D01*
X25431Y439631D01*
X25430Y439635D01*
X25432Y439637D01*
X25430Y439640D01*
X25434Y439642D01*
X25559Y440755D01*
X25555Y440762D01*
X25559Y440766D01*
X25434Y441878D01*
X25428Y441884D01*
X25431Y441889D01*
X25061Y442946D01*
X25055Y442950D01*
X25057Y442956D01*
X24461Y443904D01*
X24453Y443907D01*
X24454Y443912D01*
X23662Y444704D01*
X23654Y444705D01*
X23654Y444711D01*
X22706Y445307D01*
X22697Y445306D01*
X22696Y445311D01*
X21639Y445681D01*
X21631Y445679D01*
X21628Y445684D01*
X20516Y445809D01*
X20512Y445807D01*
X20510Y445809D01*
X12510Y445809D01*
X12507Y445807D01*
X12506Y445807D01*
X12505Y445809D01*
X11392Y445684D01*
X11386Y445678D01*
X11381Y445681D01*
X10324Y445311D01*
X10320Y445305D01*
X10314Y445307D01*
X9366Y444711D01*
X9363Y444703D01*
X9358Y444704D01*
X8566Y443912D01*
X8565Y443904D01*
X8559Y443904D01*
X7963Y442956D01*
X7964Y442947D01*
X7959Y442946D01*
X7589Y441889D01*
X7591Y441883D01*
X7587Y441880D01*
X7588Y441879D01*
X7586Y441878D01*
X7461Y440766D01*
X7465Y440758D01*
X7461Y440755D01*
X7586Y439642D01*
X7592Y439636D01*
X7589Y439631D01*
X7959Y438574D01*
X7966Y438570D01*
X7963Y438564D01*
X8559Y437616D01*
X8567Y437613D01*
X8566Y437608D01*
X9358Y436816D01*
X9366Y436815D01*
X9366Y436809D01*
X10314Y436213D01*
X10323Y436214D01*
X10324Y436209D01*
X11381Y435839D01*
X11389Y435841D01*
X11392Y435836D01*
X12505Y435711D01*
X12508Y435713D01*
X12510Y435711D01*
X20510Y435711D01*
X20513Y435713D01*
G37*
G36*
X20513Y349213D02*
X20513Y349213D01*
X20516Y349211D01*
X21628Y349336D01*
X21634Y349342D01*
X21639Y349339D01*
X22696Y349709D01*
X22700Y349716D01*
X22706Y349713D01*
X23654Y350309D01*
X23657Y350317D01*
X23662Y350316D01*
X24454Y351108D01*
X24455Y351116D01*
X24461Y351116D01*
X25057Y352064D01*
X25056Y352073D01*
X25061Y352074D01*
X25431Y353131D01*
X25430Y353135D01*
X25432Y353137D01*
X25430Y353140D01*
X25434Y353142D01*
X25559Y354255D01*
X25555Y354262D01*
X25559Y354266D01*
X25434Y355378D01*
X25428Y355384D01*
X25431Y355389D01*
X25061Y356446D01*
X25055Y356450D01*
X25057Y356456D01*
X24461Y357404D01*
X24453Y357407D01*
X24454Y357412D01*
X23662Y358204D01*
X23654Y358205D01*
X23654Y358211D01*
X22706Y358807D01*
X22697Y358806D01*
X22696Y358811D01*
X21639Y359181D01*
X21631Y359179D01*
X21628Y359184D01*
X20516Y359309D01*
X20512Y359307D01*
X20510Y359309D01*
X12510Y359309D01*
X12507Y359307D01*
X12506Y359307D01*
X12505Y359309D01*
X11392Y359184D01*
X11386Y359178D01*
X11381Y359181D01*
X10324Y358811D01*
X10320Y358805D01*
X10314Y358807D01*
X9366Y358211D01*
X9363Y358203D01*
X9358Y358204D01*
X8566Y357412D01*
X8565Y357404D01*
X8559Y357404D01*
X7963Y356456D01*
X7964Y356447D01*
X7959Y356446D01*
X7589Y355389D01*
X7591Y355383D01*
X7587Y355380D01*
X7588Y355379D01*
X7586Y355378D01*
X7461Y354266D01*
X7465Y354258D01*
X7461Y354255D01*
X7586Y353142D01*
X7592Y353136D01*
X7589Y353131D01*
X7959Y352074D01*
X7966Y352070D01*
X7963Y352064D01*
X8559Y351116D01*
X8567Y351113D01*
X8566Y351108D01*
X9358Y350316D01*
X9366Y350315D01*
X9366Y350309D01*
X10314Y349713D01*
X10323Y349714D01*
X10324Y349709D01*
X11381Y349339D01*
X11389Y349341D01*
X11392Y349336D01*
X12505Y349211D01*
X12508Y349213D01*
X12510Y349211D01*
X20510Y349211D01*
X20513Y349213D01*
G37*
G36*
X173085Y473057D02*
X173085Y473057D01*
X173099Y473055D01*
X174685Y474641D01*
X174686Y474652D01*
X174687Y474653D01*
X174687Y474654D01*
X174689Y474668D01*
X174699Y474676D01*
X174699Y477504D01*
X174683Y477525D01*
X174685Y477539D01*
X173099Y479125D01*
X173072Y479129D01*
X173064Y479139D01*
X166650Y479139D01*
X166603Y479103D01*
X166608Y479096D01*
X166601Y479090D01*
X166601Y473090D01*
X166637Y473043D01*
X166644Y473048D01*
X166650Y473041D01*
X173064Y473041D01*
X173085Y473057D01*
G37*
G36*
X173085Y453057D02*
X173085Y453057D01*
X173099Y453055D01*
X174685Y454641D01*
X174686Y454652D01*
X174687Y454653D01*
X174687Y454654D01*
X174689Y454668D01*
X174699Y454676D01*
X174699Y457504D01*
X174683Y457525D01*
X174685Y457539D01*
X173099Y459125D01*
X173072Y459129D01*
X173064Y459139D01*
X166650Y459139D01*
X166603Y459103D01*
X166608Y459096D01*
X166601Y459090D01*
X166601Y453090D01*
X166637Y453043D01*
X166644Y453048D01*
X166650Y453041D01*
X173064Y453041D01*
X173085Y453057D01*
G37*
G36*
X173085Y463057D02*
X173085Y463057D01*
X173099Y463055D01*
X174685Y464641D01*
X174686Y464652D01*
X174687Y464653D01*
X174687Y464654D01*
X174689Y464668D01*
X174699Y464676D01*
X174699Y467504D01*
X174683Y467525D01*
X174685Y467539D01*
X173099Y469125D01*
X173072Y469129D01*
X173064Y469139D01*
X166650Y469139D01*
X166603Y469103D01*
X166608Y469096D01*
X166601Y469090D01*
X166601Y463090D01*
X166637Y463043D01*
X166644Y463048D01*
X166650Y463041D01*
X173064Y463041D01*
X173085Y463057D01*
G37*
G36*
X201697Y473077D02*
X201697Y473077D01*
X201692Y473084D01*
X201699Y473090D01*
X201699Y479090D01*
X201663Y479137D01*
X201656Y479132D01*
X201650Y479139D01*
X195236Y479139D01*
X195215Y479123D01*
X195201Y479125D01*
X193615Y477539D01*
X193612Y477512D01*
X193601Y477504D01*
X193601Y474676D01*
X193617Y474655D01*
X193615Y474641D01*
X195201Y473055D01*
X195228Y473052D01*
X195236Y473041D01*
X201650Y473041D01*
X201697Y473077D01*
G37*
G36*
X201697Y463077D02*
X201697Y463077D01*
X201692Y463084D01*
X201699Y463090D01*
X201699Y469090D01*
X201663Y469137D01*
X201656Y469132D01*
X201650Y469139D01*
X195236Y469139D01*
X195215Y469123D01*
X195201Y469125D01*
X193615Y467539D01*
X193612Y467512D01*
X193601Y467504D01*
X193601Y464676D01*
X193617Y464655D01*
X193615Y464641D01*
X195201Y463055D01*
X195228Y463052D01*
X195236Y463041D01*
X201650Y463041D01*
X201697Y463077D01*
G37*
G36*
X201697Y453077D02*
X201697Y453077D01*
X201692Y453084D01*
X201699Y453090D01*
X201699Y459090D01*
X201663Y459137D01*
X201656Y459132D01*
X201650Y459139D01*
X195236Y459139D01*
X195215Y459123D01*
X195201Y459125D01*
X193615Y457539D01*
X193612Y457512D01*
X193601Y457504D01*
X193601Y454676D01*
X193617Y454655D01*
X193615Y454641D01*
X195201Y453055D01*
X195228Y453052D01*
X195236Y453041D01*
X201650Y453041D01*
X201697Y453077D01*
G37*
D10*
X660400Y355600D03*
X660400Y76200D03*
X152400Y508000D03*
X139700Y25400D03*
D11*
X635000Y500888D02*
X635000Y515112D01*
X609600Y515112D02*
X609600Y500888D01*
X584200Y500888D02*
X584200Y515112D01*
X558800Y515112D02*
X558800Y500888D01*
X533400Y500888D02*
X533400Y515112D01*
X508000Y515112D02*
X508000Y500888D01*
X482600Y500888D02*
X482600Y515112D01*
X457200Y515112D02*
X457200Y500888D01*
X416560Y500888D02*
X416560Y515112D01*
X391160Y515112D02*
X391160Y500888D01*
X365760Y500888D02*
X365760Y515112D01*
X340360Y515112D02*
X340360Y500888D01*
X314960Y500888D02*
X314960Y515112D01*
X289560Y515112D02*
X289560Y500888D01*
X264160Y500888D02*
X264160Y515112D01*
X238760Y515112D02*
X238760Y500888D01*
X213360Y500888D02*
X213360Y515112D01*
X187960Y515112D02*
X187960Y500888D01*
X508000Y32512D02*
X508000Y18288D01*
X533400Y18288D02*
X533400Y32512D01*
X558800Y32512D02*
X558800Y18288D01*
X584200Y18288D02*
X584200Y32512D01*
X609600Y32512D02*
X609600Y18288D01*
X635000Y18288D02*
X635000Y32512D01*
X279400Y32512D02*
X279400Y18288D01*
X304800Y18288D02*
X304800Y32512D01*
X330200Y32512D02*
X330200Y18288D01*
X355600Y18288D02*
X355600Y32512D01*
X381000Y32512D02*
X381000Y18288D01*
X406400Y18288D02*
X406400Y32512D01*
X431800Y32512D02*
X431800Y18288D01*
X457200Y18288D02*
X457200Y32512D01*
D12*
X519040Y467360D03*
X502040Y467360D03*
D13*
X551710Y446950D03*
X539010Y446950D03*
X526310Y446950D03*
X513610Y446950D03*
X500910Y446950D03*
X488210Y446950D03*
X475510Y446950D03*
X462810Y446950D03*
X450110Y446950D03*
X437410Y446950D03*
X424710Y446950D03*
X412010Y446950D03*
X399310Y446950D03*
X386610Y446950D03*
D14*
X376610Y419100D03*
X376610Y406400D03*
X376610Y393700D03*
X376610Y381000D03*
X376610Y368300D03*
X376610Y355600D03*
X376610Y342900D03*
X376610Y330200D03*
X376610Y317500D03*
X376610Y304800D03*
D13*
X386610Y276950D03*
X399310Y276950D03*
X412010Y276950D03*
X424710Y276950D03*
X437410Y276950D03*
X450110Y276950D03*
X462810Y276950D03*
X475510Y276950D03*
X488210Y276950D03*
X500910Y276950D03*
X513610Y276950D03*
X526310Y276950D03*
X539010Y276950D03*
X551710Y276950D03*
D15*
X495060Y390300D03*
X495060Y371950D03*
X495060Y353600D03*
X476710Y390300D03*
X476710Y371950D03*
X476710Y353600D03*
X458360Y390300D03*
X458360Y371950D03*
X458360Y353600D03*
D16*
X495060Y381125D03*
X495060Y362775D03*
X485885Y390300D03*
X485885Y371950D03*
X485885Y353600D03*
X476710Y381125D03*
X476710Y362775D03*
X467535Y390300D03*
X467535Y371950D03*
X467535Y353600D03*
X458360Y381125D03*
X458360Y362775D03*
D17*
X237110Y261620D03*
X253110Y261620D03*
X602360Y467360D03*
X586360Y467360D03*
X298830Y260350D03*
X282830Y260350D03*
D18*
X233310Y369570D03*
X218810Y369570D03*
D19*
X189890Y368300D03*
X208890Y368300D03*
D20*
X235610Y275750D03*
X254610Y275750D03*
X245110Y295750D03*
X280060Y275750D03*
X299060Y275750D03*
X289560Y295750D03*
D21*
X573120Y467360D03*
X559720Y467360D03*
X547720Y467360D03*
X534320Y467360D03*
D22*
X161740Y365120D03*
X161740Y371480D03*
X161740Y377820D03*
X161740Y384180D03*
X161740Y390520D03*
X161740Y396880D03*
X161740Y403220D03*
X161740Y409580D03*
X161740Y415920D03*
X161740Y422280D03*
X107500Y422280D03*
X107500Y415920D03*
X107500Y409580D03*
X107500Y403220D03*
X107500Y396880D03*
X107500Y390520D03*
X107500Y384180D03*
X107500Y377820D03*
X107500Y371480D03*
X107500Y365120D03*
D18*
X233310Y411480D03*
X218810Y411480D03*
X233310Y387350D03*
X218810Y387350D03*
D19*
X189890Y412750D03*
X208890Y412750D03*
X189890Y389890D03*
X208890Y389890D03*
D23*
X83820Y361030D03*
X83820Y347630D03*
X139700Y461360D03*
X139700Y447960D03*
X81280Y413670D03*
X81280Y427070D03*
D24*
X64010Y415010D03*
X64010Y410010D03*
X64010Y405010D03*
X64010Y380010D03*
X64010Y385010D03*
X64010Y390010D03*
X64010Y400010D03*
X64010Y395010D03*
D25*
X64010Y429510D03*
X64010Y365510D03*
X64010Y421510D03*
X64010Y373510D03*
D26*
X53310Y426410D03*
X53310Y368610D03*
D27*
X96220Y448310D03*
X122220Y448310D03*
D23*
X152400Y447960D03*
X152400Y461360D03*
D28*
X19270Y517800D03*
X110270Y517800D03*
X19270Y472800D03*
X110270Y472800D03*
D29*
X241330Y187960D03*
X340330Y187960D03*
D30*
X133350Y280670D03*
D31*
X168350Y280670D03*
D32*
X372200Y172720D03*
X415200Y172720D03*
D33*
X154460Y54610D03*
X170660Y54610D03*
D34*
X55880Y159700D03*
X55880Y246700D03*
D35*
X133640Y81130D03*
X150640Y81130D03*
X167640Y81130D03*
X184640Y81130D03*
X201640Y81130D03*
D36*
X167640Y187880D03*
D37*
X215465Y213280D03*
X119815Y213280D03*
D38*
X70358Y29210D03*
D39*
X100330Y79248D03*
X40386Y79248D03*
D40*
X77978Y29210D03*
X62738Y29210D03*
X40386Y71628D03*
X40386Y86868D03*
X100330Y71628D03*
X100330Y86868D03*
D41*
X190900Y38930D03*
X215900Y38930D03*
X240900Y38930D03*
D42*
X181900Y11430D03*
X249900Y11430D03*
D43*
X334670Y366730D03*
X344170Y366730D03*
X353670Y366730D03*
X353670Y392730D03*
X334670Y392730D03*
X344170Y392730D03*
D44*
X256638Y333362D02*
X242022Y333362D01*
X242022Y336378D01*
X256638Y336378D01*
X256638Y333362D01*
X256638Y336227D02*
X242022Y336227D01*
X242022Y326862D02*
X256638Y326862D01*
X242022Y326862D02*
X242022Y329878D01*
X256638Y329878D01*
X256638Y326862D01*
X256638Y329727D02*
X242022Y329727D01*
X242022Y320362D02*
X256638Y320362D01*
X242022Y320362D02*
X242022Y323378D01*
X256638Y323378D01*
X256638Y320362D01*
X256638Y323227D02*
X242022Y323227D01*
X242022Y313862D02*
X256638Y313862D01*
X242022Y313862D02*
X242022Y316878D01*
X256638Y316878D01*
X256638Y313862D01*
X256638Y316727D02*
X242022Y316727D01*
X299622Y313862D02*
X314238Y313862D01*
X299622Y313862D02*
X299622Y316878D01*
X314238Y316878D01*
X314238Y313862D01*
X314238Y316727D02*
X299622Y316727D01*
X299622Y320362D02*
X314238Y320362D01*
X299622Y320362D02*
X299622Y323378D01*
X314238Y323378D01*
X314238Y320362D01*
X314238Y323227D02*
X299622Y323227D01*
X299622Y326862D02*
X314238Y326862D01*
X299622Y326862D02*
X299622Y329878D01*
X314238Y329878D01*
X314238Y326862D01*
X314238Y329727D02*
X299622Y329727D01*
X299622Y333362D02*
X314238Y333362D01*
X299622Y333362D02*
X299622Y336378D01*
X314238Y336378D01*
X314238Y333362D01*
X314238Y336227D02*
X299622Y336227D01*
D45*
X270099Y390181D02*
X251901Y390181D01*
X251901Y394679D01*
X270099Y394679D01*
X270099Y390181D01*
X270099Y393538D02*
X251901Y393538D01*
X251901Y377481D02*
X270099Y377481D01*
X251901Y377481D02*
X251901Y381979D01*
X270099Y381979D01*
X270099Y377481D01*
X270099Y380838D02*
X251901Y380838D01*
X251901Y364781D02*
X270099Y364781D01*
X251901Y364781D02*
X251901Y369279D01*
X270099Y369279D01*
X270099Y364781D01*
X270099Y368138D02*
X251901Y368138D01*
X251901Y352081D02*
X270099Y352081D01*
X251901Y352081D02*
X251901Y356579D01*
X270099Y356579D01*
X270099Y352081D01*
X270099Y355438D02*
X251901Y355438D01*
X301401Y352081D02*
X319599Y352081D01*
X301401Y352081D02*
X301401Y356579D01*
X319599Y356579D01*
X319599Y352081D01*
X319599Y355438D02*
X301401Y355438D01*
X301401Y364781D02*
X319599Y364781D01*
X301401Y364781D02*
X301401Y369279D01*
X319599Y369279D01*
X319599Y364781D01*
X319599Y368138D02*
X301401Y368138D01*
X301401Y377481D02*
X319599Y377481D01*
X301401Y377481D02*
X301401Y381979D01*
X319599Y381979D01*
X319599Y377481D01*
X319599Y380838D02*
X301401Y380838D01*
X301401Y390181D02*
X319599Y390181D01*
X301401Y390181D02*
X301401Y394679D01*
X319599Y394679D01*
X319599Y390181D01*
X319599Y393538D02*
X301401Y393538D01*
D46*
X285750Y373380D03*
D47*
X252730Y417450D03*
X252730Y433450D03*
D48*
X292100Y417220D03*
X292100Y436220D03*
X269240Y417220D03*
X269240Y436220D03*
D47*
X306070Y417450D03*
X306070Y433450D03*
D17*
X234060Y427990D03*
X218060Y427990D03*
D49*
X222540Y342900D03*
X188940Y342900D03*
D50*
X325628Y295148D03*
X325628Y276352D03*
D51*
X347472Y285750D03*
D23*
X369570Y258160D03*
X369570Y244760D03*
X381000Y258160D03*
X381000Y244760D03*
D21*
X212440Y314960D03*
X199040Y314960D03*
D47*
X340360Y410084D03*
X340360Y426084D03*
D23*
X353060Y424530D03*
X353060Y411130D03*
D47*
X340360Y336170D03*
X340360Y352170D03*
D23*
X327660Y413670D03*
X327660Y427070D03*
D52*
X36830Y293530D03*
X36830Y313530D03*
D53*
X651510Y314480D03*
X651510Y294480D03*
X651510Y274480D03*
X651510Y254480D03*
D54*
X396900Y197820D03*
X406400Y197820D03*
X415900Y197820D03*
X415900Y223820D03*
X396900Y223820D03*
D21*
X367950Y203200D03*
X381350Y203200D03*
D55*
X412360Y238760D03*
X395360Y238760D03*
D47*
X381000Y216790D03*
X381000Y232790D03*
D56*
X368300Y218060D03*
X368300Y234060D03*
D57*
X215900Y294930D03*
X215900Y261330D03*
D58*
X444320Y92790D02*
X444320Y62310D01*
X444320Y222310D02*
X444320Y252790D01*
X464320Y92790D02*
X464320Y62310D01*
X484320Y62310D02*
X484320Y92790D01*
X504320Y92790D02*
X504320Y62310D01*
X524320Y62310D02*
X524320Y92790D01*
X544320Y92790D02*
X544320Y62310D01*
X564320Y62310D02*
X564320Y92790D01*
X584320Y92790D02*
X584320Y62310D01*
X464320Y222310D02*
X464320Y252790D01*
X484320Y252790D02*
X484320Y222310D01*
X504320Y222310D02*
X504320Y252790D01*
X524320Y252790D02*
X524320Y222310D01*
X544320Y222310D02*
X544320Y252790D01*
X564320Y252790D02*
X564320Y222310D01*
X584320Y222310D02*
X584320Y252790D01*
D59*
X646176Y166370D03*
X646176Y122174D03*
X646176Y210566D03*
D23*
X398780Y83470D03*
X398780Y96870D03*
D60*
X283210Y72390D03*
X308610Y72390D03*
X334010Y72390D03*
X359410Y72390D03*
D17*
X284100Y113030D03*
X300100Y113030D03*
X284100Y99060D03*
X300100Y99060D03*
D23*
X410210Y83470D03*
X410210Y96870D03*
X422910Y83470D03*
X422910Y96870D03*
D61*
X383240Y149200D03*
X383240Y139700D03*
X383240Y130200D03*
X409240Y130200D03*
X409240Y149200D03*
D23*
X368300Y107030D03*
X368300Y93630D03*
D55*
X385200Y114300D03*
X402200Y114300D03*
D47*
X422910Y135510D03*
X422910Y151510D03*
D56*
X422910Y123570D03*
X422910Y107570D03*
D17*
X162180Y431800D03*
X178180Y431800D03*
D62*
G36*
X84418Y153550D02*
X98723Y139245D01*
X85902Y126424D01*
X71597Y140729D01*
X84418Y153550D01*
G37*
G36*
X102802Y171935D02*
X117107Y157630D01*
X104286Y144809D01*
X89981Y159114D01*
X102802Y171935D01*
G37*
D63*
X341903Y40367D03*
X325120Y439420D03*
M02*
