M48
;GenerationSoftware,Autodesk,EAGLE,9.6.2*%
;CreationDate,2024-06-28T07:33:45Z*%
FMAT,2
ICI,OFF
METRIC,TZ,000.000
T10C0.200
T9C0.350
T8C0.600
T7C0.610
T6C0.800
T5C0.813
T4C0.850
T3C1.000
T2C1.300
T1C3.200
%
G90
M71
T1
X66040Y7620
X66040Y35560
X15240Y50800
X13970Y2540
T2
X7036Y2921
X7798Y2921
X4039Y7925
X10033Y7925
X6274Y2921
X4039Y7163
X4039Y8687
X10033Y7163
X10033Y8687
T3
X18190Y1143
X24990Y1143
X33401Y7239
X35941Y7239
X28321Y7239
X30861Y7239
T4
X41656Y50800
X39116Y50800
X36576Y50800
X34036Y50800
X31496Y50800
X28956Y50800
X26416Y50800
X23876Y50800
X21336Y50800
X18796Y50800
X50800Y2540
X53340Y2540
X55880Y2540
X58420Y2540
X50800Y50800
X63500Y2540
X27940Y2540
X30480Y2540
X33020Y2540
X35560Y2540
X38100Y2540
X40640Y2540
X43180Y2540
X45720Y2540
X63500Y50800
X60960Y50800
X58420Y50800
X55880Y50800
X53340Y50800
X60960Y2540
X48260Y50800
X45720Y50800
T5
X3683Y31353
X65151Y31448
X65151Y29448
X65151Y27448
X65151Y25448
X3683Y29353
T6
X13335Y28067
X16835Y28067
T7
X32512Y43942
X34190Y4037
T8
X5331Y42641
X5821Y44076
X5821Y35426
X1651Y44076
X1651Y35426
X5331Y36861
T9
X31369Y44323
X35179Y48260
X27432Y48133
X31496Y46228
X43561Y48768
X64262Y47498
X52451Y48006
X51943Y15240
X55118Y15240
X42672Y19304
X38481Y19177
X16891Y10795
X34417Y25781
X33531Y29769
X26100Y35433
X31050Y39243
X31050Y41553
X17780Y36957
X29718Y24892
X17320Y35989
X22580Y27813
X43307Y21082
X44450Y19050
X4521Y39751
X8001Y39188
X12677Y38227
X17834Y39878
X44015Y36837
X59436Y26289
X53540Y37973
X53134Y36957
X54506Y19050
X52728Y35941
X52347Y34925
X52347Y33771
X36322Y13589
X40708Y6804
X53693Y17822
X52347Y32760
X52347Y31750
X49022Y21082
X42949Y50673
X38735Y46355
X44574Y40064
X36195Y45455
X46161Y33715
X55372Y21463
X54506Y12700
X52451Y11049
X48514Y10287
X36449Y43434
X44450Y31750
X45339Y21082
X50292Y11049
X40186Y41402
X42105Y31315
X45302Y47916
X44323Y38481
X39242Y30360
X52324Y4953
X39370Y7264
X50793Y4946
X40005Y29464
X40406Y26114
X43180Y25400
X46432Y23755
X34290Y44069
X35941Y32385
X12319Y41910
X14478Y41856
X2540Y49403
X22589Y37846
X14478Y39830
X36322Y44444
X44450Y32760
X47371Y21209
X46355Y12192
X12677Y37217
X50038Y29464
X48895Y30661
X59572Y49031
X14605Y36449
X50947Y29238
X35687Y30607
X11049Y50038
X52390Y43119
X20574Y26464
X25908Y5080
X40005Y46228
X43561Y49784
X43228Y36195
X29083Y15113
X25400Y15113
X35560Y23368
X29972Y12700
X30988Y24996
X59048Y48126
X53721Y42799
X39497Y25019
X61341Y46736
X51920Y29591
X50292Y30711
X22737Y36937
X34671Y29899
X29083Y34871
X31050Y35433
X29337Y4699
X10668Y32258
X18691Y32258
X23372Y32385
X42937Y35041
X18415Y48395
X59055Y19939
X60652Y19939
X34417Y13267
X52197Y21082
X28248Y46174
X43561Y34236
X60760Y21082
X59182Y18923
X34496Y14278
X49377Y26136
X8128Y37969
X9385Y43053
X29292Y30838
X32512Y28423
X32782Y22495
X37211Y29083
X58039Y20828
X61087Y16510
X8890Y20447
X26289Y22352
X22733Y14859
X22606Y9652
X26289Y9271
X32766Y11557
X49149Y14986
X44577Y14986
X57658Y13970
X57658Y12446
X61468Y9144
X61595Y14351
X62865Y18796
X48006Y47117
X39624Y37465
X47625Y33401
X39624Y35306
X26289Y33528
X23622Y34417
X14986Y35433
X10414Y34417
X14351Y30099
X12954Y33274
X8763Y30353
X8509Y26924
X2667Y22606
X2286Y13589
X2667Y3683
X10795Y4191
X3810Y34036
X2286Y39116
X5969Y49149
X15875Y47625
X16383Y44450
X21717Y44196
X19050Y42545
X24638Y47371
X23114Y47498
X41148Y47117
X31750Y16891
X17907Y37973
X48133Y16256
X2794Y18669
X6604Y33147
X2667Y41275
X4826Y46101
X20066Y48641
X37592Y48133
X12700Y46863
X31623Y20066
X28956Y17018
X28956Y21082
X26670Y20701
X23876Y22479
X24384Y24892
X19685Y23749
X36703Y12065
X39243Y42164
X48006Y3937
X27940Y34544
X32512Y33655
X24511Y36830
X20955Y34163
X20828Y30480
X18796Y30988
T10
X48588Y37195
X48588Y35360
X47671Y38113
X47671Y36278
X46753Y39030
X46753Y37195
X46753Y35360
X45836Y38113
X45836Y36278
X49506Y36278
X49506Y38113
X48588Y39030
M30